<svg width="31" height="30" viewBox="0 0 31 30" fill="none" xmlns="http://www.w3.org/2000/svg">
<path d="M15.4463 27.5C22.2225 27.5 27.9463 21.7763 27.9463 15C27.9463 8.22375 22.2225 2.5 15.4463 2.5C8.67004 2.5 2.94629 8.22375 2.94629 15C2.94629 21.7763 8.67004 27.5 15.4463 27.5ZM15.4463 5C20.8675 5 25.4463 9.57875 25.4463 15C25.4463 20.4212 20.8675 25 15.4463 25C10.025 25 5.44629 20.4212 5.44629 15C5.44629 9.57875 10.025 5 15.4463 5Z" fill="white"/>
<path d="M15.4463 21.25C16.5725 21.25 18.6725 21.04 20.08 19.635L18.3125 17.865C17.7588 18.4187 16.6863 18.75 15.4463 18.75C13.4138 18.75 11.6963 17.0325 11.6963 15C11.6963 12.9675 13.4138 11.25 15.4463 11.25C16.6875 11.25 17.76 11.5812 18.3125 12.1337L20.08 10.3663C18.6738 8.96 16.5725 8.75 15.4463 8.75C12 8.75 9.19629 11.5538 9.19629 15C9.19629 18.4462 12 21.25 15.4463 21.25Z" fill="white"/>
</svg>
