<svg width="433" height="300" viewBox="0 0 433 300" fill="none" xmlns="http://www.w3.org/2000/svg">
<rect width="432.157" height="300" fill="white"/>
<path opacity="0.2" d="M129.24 38.8928L128.933 38.8153L31.4106 242.986L375.197 269.525L375.584 269.555L388.181 103.814L388.206 103.488L129.24 38.8928ZM227.999 170.193L32.7637 241.951L129.222 40.0095L227.999 170.193ZM228.572 170.808L373.793 268.637L33.8068 242.394L228.572 170.808ZM228.751 169.903L130.12 39.9095L386.567 103.876L228.751 169.903ZM374.891 268.444L229.437 170.456L387.36 104.385L374.891 268.444Z" fill="#061173"/>
<path opacity="0.09" d="M409.744 95.6395C409.505 101.693 407.803 107.598 404.785 112.851C401.767 118.104 397.522 122.548 392.413 125.804C387.304 129.059 381.483 131.03 375.447 131.546C369.411 132.063 363.339 131.11 357.751 128.77C355.13 127.671 352.645 126.275 350.343 124.608C345.945 121.432 342.284 117.344 339.611 112.623V112.619C336.761 107.569 335.12 101.928 334.818 96.1373C334.517 90.3468 335.562 84.5652 337.871 79.2467C340.181 73.9283 343.693 69.2178 348.13 65.4855C352.567 61.7531 357.81 59.1005 363.445 57.7361C369.081 56.3717 374.956 56.3327 380.609 57.622C386.262 58.9114 391.539 61.4941 396.026 65.1671C400.513 68.8401 404.086 73.5035 406.467 78.7908C408.847 84.078 409.969 89.8452 409.744 95.6392L409.744 95.6395Z" fill="#367CFF"/>
<path d="M381.137 65.6255C381.137 65.6255 390.103 65.7353 387.011 78.0911L386.169 78.1323L384.46 78.2155" fill="#0C0C0C"/>
<path d="M371.125 91.0544C371.167 91.0505 371.333 98.7573 380.291 98.4335C386.492 98.2103 388.952 91.7351 389.094 91.7404C388.433 91.573 387.318 91.3227 387.028 91.1538C386.075 90.593 384.891 90.0019 384.65 88.0986C384.512 87.0016 385.035 81.438 384.983 80.3318L375.409 82.082C375.451 84.4162 376.17 89.8509 372.88 90.6802C372.332 90.8174 371.743 90.9401 371.125 91.0544Z" fill="#E98862"/>
<path opacity="0.52" d="M375.024 88.5538C375.192 88.0804 375.307 87.59 375.367 87.0916C375.516 85.9545 375.54 84.8047 375.438 83.6625C377.377 83.477 379.226 82.7512 380.773 81.5676C380.924 82.2241 381.783 85.1074 381.49 85.7156C380.938 86.8657 378.48 88.6881 375.024 88.5538Z" fill="#0C0C0C"/>
<path d="M377.198 87.1921C380.951 86.9236 385.478 84.6386 385.636 79.5528L385.778 74.9647C385.935 69.8797 383.39 65.6747 378.604 65.5267C373.816 65.3775 370.11 69.39 369.953 74.475L369.89 76.5063C369.881 77.2043 369.919 77.9023 370.004 78.5952C370.217 80.4274 370.547 83.2134 371.753 85.1158C372.892 86.9116 374.8 87.3631 377.198 87.1921Z" fill="#E98862"/>
<path d="M385.291 81.0937C386.746 81.1384 387.973 79.6183 388.018 78.1635C388.063 76.7088 386.909 75.8696 385.454 75.8246L384.674 76.7762L384.04 81.0549L385.291 81.0937Z" fill="#E98862"/>
<path d="M370.199 80.1307C370.462 80.4423 370.799 80.6833 371.179 80.8316C371.558 80.98 371.969 81.031 372.374 80.98C373.239 80.8711 373.813 81.2262 374.535 81.1549C375.142 81.0952 375.247 80.815 376.282 80.7538C380.276 80.5171 383.274 80.2653 383.469 75.2522L386.011 72.9941C386.011 72.9941 387.147 86.8859 379.633 88.7325C375.016 89.8664 370.686 89.4519 370.129 85.1157C369.677 81.5923 370.199 80.1307 370.199 80.1307Z" fill="#0C0C0C"/>
<path d="M372.092 77.2296C372.418 77.2296 372.682 76.9655 372.682 76.6396C372.682 76.3138 372.418 76.0497 372.092 76.0497C371.766 76.0497 371.502 76.3138 371.502 76.6396C371.502 76.9655 371.766 77.2296 372.092 77.2296Z" fill="#0C0C0C"/>
<path d="M377.362 77.1197C377.688 77.1197 377.952 76.8556 377.952 76.5298C377.952 76.204 377.688 75.9398 377.362 75.9398C377.037 75.9398 376.772 76.204 376.772 76.5298C376.772 76.8556 377.037 77.1197 377.362 77.1197Z" fill="#0C0C0C"/>
<path d="M383.885 78.7285C383.885 78.7285 383.525 71.523 381.351 71.0387C379.903 70.7161 376.341 72.7137 373.087 72.0315C371.664 71.7331 370.302 72.0613 370.151 72.734C370.092 73.0002 368.965 70.6394 371.255 67.7669C373.078 65.4798 379.007 64.8365 381.644 65.6452C388.947 67.8851 385.748 76.1472 385.748 76.1472L385.376 78.6223L383.885 78.7285Z" fill="#0C0C0C"/>
<path d="M387.204 72.9183C389.353 72.9183 391.096 71.1759 391.096 69.0264C391.096 66.877 389.353 65.1345 387.204 65.1345C385.054 65.1345 383.312 66.877 383.312 69.0264C383.312 71.1759 385.054 72.9183 387.204 72.9183Z" fill="#0C0C0C"/>
<g opacity="0.52">
<path d="M374.607 80.9233H374.598C374.129 80.9098 373.344 80.8352 373.353 80.4846C373.361 80.1939 374.246 77.0791 374.347 76.7246C374.355 76.6941 374.376 76.6683 374.404 76.6529C374.431 76.6375 374.464 76.6337 374.494 76.6424C374.525 76.651 374.551 76.6715 374.566 76.6991C374.581 76.7268 374.585 76.7595 374.577 76.7899C374.184 78.1695 373.598 80.2936 373.592 80.4903C373.636 80.5744 374.119 80.6693 374.604 80.6833C374.636 80.683 374.666 80.6952 374.689 80.7173C374.711 80.7395 374.724 80.7697 374.725 80.8014C374.725 80.833 374.713 80.8635 374.691 80.8862C374.669 80.9088 374.638 80.9217 374.607 80.9221V80.9233Z" fill="#0C0C0C"/>
</g>
<path d="M373.179 74.6352C372.695 74.4917 372.181 74.4814 371.691 74.6053C371.45 74.6645 371.219 74.7597 371.006 74.8876C370.796 75.013 370.602 75.1645 370.429 75.3385C370.399 75.3653 370.381 75.403 370.379 75.4431C370.376 75.4833 370.39 75.5227 370.417 75.5526C370.444 75.5826 370.482 75.6006 370.522 75.6029C370.562 75.6051 370.601 75.5912 370.631 75.5644L370.64 75.5567C370.801 75.4114 370.98 75.287 371.172 75.1863C371.361 75.0861 371.564 75.0151 371.775 74.9756C372.19 74.8945 372.619 74.9244 373.019 75.0625L373.034 75.0682C373.062 75.0791 373.092 75.0843 373.123 75.0834C373.153 75.0826 373.183 75.0758 373.21 75.0633C373.238 75.0508 373.263 75.033 373.283 75.0108C373.304 74.9887 373.32 74.9626 373.33 74.9342C373.341 74.9058 373.345 74.8756 373.344 74.8453C373.343 74.8151 373.335 74.7854 373.322 74.7581C373.31 74.7307 373.291 74.7062 373.269 74.6859C373.246 74.6657 373.22 74.6502 373.191 74.6402L373.179 74.6352Z" fill="#0C0C0C"/>
<path d="M376.655 75.0631C377.039 74.8866 377.464 74.815 377.885 74.8557C378.098 74.8744 378.307 74.9254 378.505 75.007C378.706 75.0885 378.896 75.1948 379.07 75.3236L379.08 75.3302C379.112 75.3514 379.151 75.3593 379.19 75.3523C379.228 75.3454 379.262 75.3241 379.285 75.2929C379.308 75.2616 379.318 75.2228 379.313 75.1843C379.308 75.1458 379.289 75.1107 379.259 75.0861C379.07 74.9297 378.862 74.7978 378.64 74.6934C378.416 74.5868 378.177 74.5145 377.931 74.4788C377.432 74.4035 376.921 74.4641 376.453 74.654C376.398 74.6778 376.355 74.7222 376.332 74.7777C376.31 74.8333 376.31 74.8954 376.333 74.9507C376.356 75.0061 376.4 75.0501 376.455 75.0734C376.51 75.0966 376.572 75.0972 376.628 75.0751L376.639 75.0703L376.655 75.0631Z" fill="#0C0C0C"/>
<path d="M400.556 110.298C400.222 112.818 399.896 116.278 399.606 119.857C398.469 121.066 397.254 122.199 395.968 123.248C395.15 123.912 394.307 124.544 393.437 125.142C388.733 128.353 383.36 130.453 377.725 131.282C372.091 132.112 366.341 131.65 360.911 129.931C360.837 126.607 360.736 122.123 360.636 118.016C360.521 113.278 360.405 109.036 360.343 107.642C360.085 102.11 358.619 98.4189 359.728 95.4008C360.059 94.5074 360.592 93.7024 361.285 93.0484C363.868 90.5205 370.283 90.5781 372.857 90.6781C372.901 90.6799 372.106 96.6186 380.573 96.547C386.796 96.496 387.262 91.237 387.262 91.237C387.262 91.237 390.329 91.556 392.365 91.9097C395.696 92.4931 397.862 93.7148 399.547 95.5393C401.119 97.2405 402.047 99.0465 400.556 110.298Z" fill="#367CFF"/>
<path d="M350.782 91.2636L351.038 84.9268C351.044 84.7874 351.021 84.6484 350.97 84.5185C350.919 84.3887 350.842 84.2708 350.743 84.1726C350.644 84.0743 350.526 83.9977 350.395 83.9478C350.265 83.8978 350.126 83.8755 349.987 83.8824C349.73 83.9031 349.49 84.0184 349.314 84.2058C349.137 84.3933 349.037 84.6396 349.032 84.897L348.977 86.2559L347.187 81.9042C346.997 81.4169 346.451 80.9406 345.919 81.1904C345.707 81.273 345.53 81.4249 345.417 81.6211C345.303 81.8173 345.259 82.0462 345.292 82.2706C345.287 82.2713 345.282 82.2724 345.277 82.2739C345.274 82.2758 345.27 82.278 345.267 82.2805L344.974 81.5291C344.919 81.3899 344.835 81.2646 344.726 81.1623C344.617 81.0601 344.486 80.9835 344.344 80.938C344.201 80.8926 344.051 80.8795 343.902 80.8997C343.754 80.9199 343.613 80.973 343.488 81.0549C343.293 81.1878 343.151 81.3835 343.083 81.6091C343.016 81.8347 343.028 82.0765 343.118 82.2942L343.243 82.6138C343.235 82.6218 343.229 82.6309 343.225 82.641C343.09 82.4447 342.89 82.3027 342.661 82.2402C342.431 82.1777 342.187 82.1989 341.971 82.2999C341.739 82.4176 341.559 82.6187 341.469 82.863C341.378 83.1073 341.382 83.3769 341.481 83.618L341.792 84.4123C341.78 84.4042 341.766 84.3991 341.751 84.3974C341.736 84.3957 341.721 84.3976 341.708 84.4028C341.692 84.4099 341.678 84.4215 341.668 84.4362C341.5 84.2945 341.29 84.2121 341.07 84.2016C340.85 84.191 340.633 84.253 340.451 84.378C340.264 84.5133 340.127 84.7078 340.064 84.9302C340.001 85.1527 340.014 85.3899 340.103 85.6036L342.722 92.3057C343.088 93.2433 343.726 94.0501 344.554 94.6227C345.382 95.1953 346.362 95.5076 347.369 95.5196C348.237 95.5299 349.075 95.2013 349.704 94.6038C350.334 94.0062 350.706 93.1867 350.741 92.3194L350.782 91.2636Z" fill="#E98862"/>
<g opacity="0.2">
<path d="M347.041 86.5872C347.019 86.5959 346.994 86.5955 346.971 86.5859C346.949 86.5763 346.931 86.5583 346.922 86.5358L345.226 82.3948C345.221 82.3834 345.218 82.371 345.217 82.3584C345.217 82.3458 345.219 82.3333 345.224 82.3216C345.228 82.3098 345.235 82.2992 345.244 82.2902C345.253 82.2812 345.263 82.2741 345.275 82.2694C345.287 82.2646 345.299 82.2622 345.312 82.2625C345.324 82.2627 345.337 82.2655 345.348 82.2706C345.36 82.2758 345.37 82.2833 345.379 82.2926C345.387 82.3018 345.394 82.3128 345.398 82.3246L347.094 86.4657C347.098 86.477 347.101 86.489 347.101 86.5012C347.1 86.5134 347.098 86.5255 347.093 86.5367C347.089 86.5479 347.082 86.5581 347.073 86.5667C347.064 86.5752 347.054 86.582 347.043 86.5866L347.041 86.5872Z" fill="#0C0C0C"/>
</g>
<g opacity="0.2">
<path d="M345.236 87.3857C345.213 87.3946 345.188 87.3941 345.165 87.3844C345.143 87.3748 345.125 87.3567 345.116 87.3341L343.224 82.7126C343.215 82.69 343.215 82.6649 343.225 82.6425C343.234 82.6202 343.252 82.6025 343.274 82.5932C343.297 82.5852 343.322 82.5859 343.344 82.5952C343.366 82.6045 343.384 82.6218 343.394 82.6437L345.286 87.2652C345.296 87.2879 345.295 87.3134 345.286 87.3361C345.276 87.3588 345.258 87.3767 345.236 87.386V87.3857Z" fill="#0C0C0C"/>
</g>
<g opacity="0.2">
<path d="M343.285 88.2615C343.262 88.2704 343.237 88.2699 343.215 88.2602C343.192 88.2506 343.175 88.2325 343.165 88.2099L341.656 84.5236C341.647 84.5009 341.647 84.4754 341.656 84.4528C341.666 84.4301 341.684 84.4122 341.706 84.4029C341.729 84.3936 341.755 84.3937 341.777 84.4032C341.8 84.4127 341.818 84.4308 341.827 84.4535L343.338 88.1389C343.347 88.1616 343.347 88.1871 343.337 88.2098C343.328 88.2325 343.31 88.2504 343.287 88.2597L343.285 88.2615Z" fill="#0C0C0C"/>
</g>
<path d="M371.759 101.198L356.337 124.909C355.776 125.771 355.024 126.493 354.141 127.019C352.827 126.294 351.558 125.489 350.343 124.608C347.753 122.739 345.412 120.547 343.378 118.084L340.139 92.9685L353.103 90.8912L354.581 102.981L360.504 93.8751L371.759 101.198Z" fill="#367CFF"/>
<path d="M404.738 112.963C402.459 116.892 399.488 120.377 395.968 123.249C395.151 123.913 394.307 124.544 393.437 125.142L387.414 102.227L400.979 98.6587L404.738 112.963Z" fill="#367CFF"/>
<path d="M393.569 125.053C393.526 125.081 393.479 125.112 393.437 125.142C393.395 125.172 393.351 125.202 393.308 125.23L388.717 107.773L389.007 107.697L393.569 125.053Z" fill="#0C0C0C"/>
<path d="M360.673 119.095C360.635 119.094 360.6 119.078 360.573 119.052C360.547 119.026 360.531 118.99 360.53 118.953L360.234 112.448C360.232 112.408 360.246 112.369 360.273 112.34C360.299 112.311 360.336 112.293 360.376 112.292C360.416 112.29 360.454 112.304 360.484 112.331C360.513 112.357 360.53 112.395 360.532 112.434L360.828 118.94C360.829 118.979 360.816 119.018 360.789 119.047C360.762 119.076 360.725 119.093 360.686 119.095H360.673Z" fill="#0C0C0C"/>
<path d="M133.5 78.7502C154.21 78.7502 170.999 61.961 170.999 41.2505C170.999 20.5399 154.21 3.75073 133.5 3.75073C112.789 3.75073 96 20.5399 96 41.2505C96 61.961 112.789 78.7502 133.5 78.7502Z" fill="white"/>
<path opacity="0.09" d="M171 41.2494C171 48.666 168.8 55.9161 164.68 62.0828C160.56 68.2495 154.703 73.0559 147.851 75.8941C140.999 78.7323 133.459 79.4749 126.185 78.028C118.911 76.5811 112.229 73.0097 106.985 67.7653C101.74 62.521 98.1689 55.8392 96.722 48.5651C95.2751 41.291 96.0177 33.7512 98.8559 26.8991C101.694 20.047 106.501 14.1905 112.667 10.07C118.834 5.94954 126.084 3.75026 133.501 3.75026C138.43 3.73203 143.315 4.68954 147.872 6.56759C152.43 8.44564 156.571 11.2071 160.057 14.6929C163.543 18.1786 166.304 22.3197 168.182 26.8776C170.06 31.4354 171.018 36.3198 171 41.2494Z" fill="#367CFF"/>
<path d="M116.901 19.1322C116.901 19.1322 116.524 24.7931 115.25 26.847C111.584 32.7596 110.521 39.4113 114.193 42.8871C117.865 46.363 141.284 46.4107 143.058 38.4176C144.551 31.6883 141.347 30.9647 140.567 25.4136C140.214 22.9019 139.243 17.635 139.243 17.635" fill="#0A0A0A"/>
<path d="M136.996 37.2447C136.956 37.2394 136.507 44.6832 127.86 44.0354C121.873 43.587 119.739 37.2353 119.602 37.2353C120.247 37.0983 121.334 36.8987 121.621 36.7459C122.564 36.2392 123.73 35.7124 124.034 33.8815C124.21 32.8278 123.912 27.4286 124.005 26.3611L133.194 28.4121C133.066 30.6659 132.167 35.8936 135.317 36.8185C135.839 36.9704 136.404 37.1112 136.996 37.2447Z" fill="#E98862"/>
<path opacity="0.5" d="M133.321 34.6816C133.177 34.2176 133.085 33.7393 133.045 33.2553C132.944 32.1506 132.964 31.0383 133.105 29.9381C131.237 29.6862 129.477 28.9154 128.026 27.7135C127.855 28.3437 126.917 31.0972 127.177 31.6963C127.669 32.8276 129.976 34.6816 133.321 34.6816Z" fill="#0C0C0C"/>
<path d="M132.133 32.3624C128.51 32.7136 123.822 31.2636 122.851 26.439L121.975 22.0856C121.004 17.2609 122.751 12.8397 127.293 11.9255C131.836 11.0111 136.019 14.2379 136.99 19.0637L137.378 20.9909C137.751 22.8422 138.597 31.7369 132.133 32.3624Z" fill="#E98862"/>
<path opacity="0.1" d="M129.83 26.0411C130.426 25.97 130.867 25.5578 130.815 25.1204C130.763 24.6829 130.237 24.386 129.641 24.4571C129.045 24.5283 128.604 24.9405 128.656 25.3779C128.708 25.8153 129.234 26.1123 129.83 26.0411Z" fill="#0C0C0C"/>
<path opacity="0.1" d="M136.13 24.2917C136.184 24.7281 136.709 25.0234 137.305 24.9543C137.408 24.942 137.51 24.9191 137.608 24.8858C137.636 24.3651 137.637 23.864 137.622 23.4004C137.457 23.3591 137.285 23.3491 137.116 23.3711C136.519 23.4411 136.079 23.8532 136.13 24.2917Z" fill="#0C0C0C"/>
<path opacity="0.5" d="M133.495 25.6413H133.504C133.688 25.6026 133.87 25.5537 134.049 25.495C134.315 25.4072 134.663 25.2593 134.616 25.0182C134.561 24.743 133.211 21.9287 133.057 21.6085C133.042 21.5822 133.018 21.5625 132.99 21.5533C132.961 21.5442 132.93 21.5463 132.903 21.5593C132.876 21.5723 132.855 21.5951 132.845 21.6231C132.834 21.651 132.834 21.6821 132.846 21.7097C133.422 22.9098 134.349 24.8791 134.386 25.0641C134.357 25.1505 133.915 25.3191 133.458 25.4113C133.429 25.4179 133.404 25.4353 133.387 25.46C133.37 25.4847 133.364 25.5148 133.369 25.5441C133.373 25.5735 133.389 25.5999 133.413 25.6181C133.436 25.6362 133.466 25.6448 133.495 25.6419V25.6413Z" fill="#0C0C0C"/>
<path d="M118.35 23.6483L122.423 22.8528C125.499 21.5649 126.372 16.2049 126.372 16.2049C126.372 16.2049 130.169 19.8206 139.243 17.6341C139.243 17.6341 137.272 4.96709 123.874 8.81205C119.553 10.0516 116.493 14.4554 116.948 20.2878C117.267 24.376 118.35 23.6483 118.35 23.6483Z" fill="#0A0A0A"/>
<path d="M123.429 27.8522C122.049 28.1299 120.632 26.8783 120.356 25.4976C120.079 24.117 121.043 23.1306 122.424 22.8528L123.322 23.6346L124.617 27.6133L123.429 27.8522Z" fill="#E98862"/>
<path d="M134.036 19.3641C134.381 19.1195 134.785 18.971 135.207 18.9338C135.418 18.9136 135.632 18.9253 135.84 18.9686C136.05 19.0113 136.254 19.0801 136.446 19.1735L136.453 19.1761C136.474 19.1847 136.497 19.1848 136.519 19.1765C136.54 19.1681 136.557 19.1519 136.567 19.1312C136.577 19.1105 136.578 19.0868 136.571 19.0651C136.564 19.0433 136.549 19.0251 136.529 19.0143C136.324 18.9064 136.107 18.8248 135.883 18.7713C135.656 18.7162 135.423 18.6955 135.191 18.7099C134.721 18.7359 134.266 18.8875 133.874 19.1489C133.859 19.1586 133.845 19.1712 133.835 19.186C133.825 19.2008 133.818 19.2176 133.814 19.2352C133.811 19.2528 133.811 19.271 133.814 19.2887C133.818 19.3063 133.825 19.3231 133.835 19.338C133.845 19.3529 133.858 19.3655 133.873 19.3753C133.888 19.385 133.905 19.3916 133.923 19.3947C133.941 19.3977 133.959 19.3972 133.977 19.3931C133.994 19.389 134.011 19.3814 134.025 19.3708L134.028 19.3687L134.036 19.3641Z" fill="#0C0C0C"/>
<path d="M130.316 19.8781C129.853 19.7861 129.375 19.82 128.93 19.9761C128.71 20.0519 128.503 20.1605 128.315 20.2981C128.128 20.4337 127.959 20.5922 127.811 20.7699C127.796 20.7876 127.789 20.8105 127.79 20.8336C127.792 20.8567 127.802 20.8784 127.819 20.894C127.836 20.9096 127.859 20.918 127.882 20.9174C127.905 20.9167 127.927 20.9071 127.944 20.8905L127.948 20.8856C128.09 20.7253 128.252 20.5835 128.43 20.4638C128.605 20.3439 128.798 20.2512 129.001 20.1889C129.405 20.0624 129.835 20.0449 130.248 20.1383L130.258 20.1406C130.275 20.1452 130.293 20.1463 130.311 20.1438C130.329 20.1414 130.346 20.1354 130.361 20.1262C130.377 20.1171 130.39 20.1049 130.401 20.0906C130.411 20.0762 130.419 20.0598 130.423 20.0424C130.427 20.025 130.428 20.007 130.425 19.9893C130.422 19.9716 130.416 19.9547 130.406 19.9396C130.397 19.9244 130.384 19.9113 130.37 19.901C130.355 19.8907 130.339 19.8834 130.321 19.8795L130.316 19.8781Z" fill="#0C0C0C"/>
<path d="M122.426 22.7861C125.163 21.7672 126.072 19.8766 126.352 18.4696C126.533 17.5313 126.516 16.5655 126.302 15.6342L126.217 15.6576C126.428 16.5768 126.444 17.5299 126.265 18.4558C125.989 19.8394 125.094 21.6999 122.395 22.7038L122.426 22.7861Z" fill="#0C0C0C"/>
<path d="M157.039 35.7622L158.678 30.2009C158.714 30.0787 158.775 29.9654 158.857 29.8681C158.939 29.7708 159.041 29.6917 159.155 29.6358C159.27 29.5799 159.395 29.5485 159.522 29.5434C159.649 29.5384 159.776 29.56 159.894 29.6067C160.111 29.6998 160.284 29.8698 160.382 30.0837C160.48 30.2977 160.495 30.5403 160.424 30.7646L160.073 31.9571L162.898 28.7145C163.206 28.3484 163.818 28.096 164.206 28.4687C164.364 28.6022 164.473 28.7855 164.514 28.9888C164.555 29.192 164.526 29.4031 164.431 29.5877C164.436 29.5896 164.439 29.5921 164.443 29.595C164.446 29.5976 164.448 29.6004 164.45 29.6035L164.924 29.0388C165.012 28.9344 165.122 28.8509 165.247 28.7944C165.371 28.7379 165.507 28.7099 165.643 28.7123C165.78 28.7148 165.914 28.7477 166.036 28.8086C166.159 28.8696 166.266 28.957 166.35 29.0646C166.479 29.2367 166.545 29.4479 166.537 29.6629C166.529 29.8778 166.448 30.0836 166.306 30.2457L166.104 30.486C166.109 30.4951 166.111 30.5051 166.112 30.5152C166.286 30.3847 166.501 30.3204 166.718 30.3337C166.935 30.3471 167.141 30.4373 167.298 30.5881C167.464 30.7582 167.561 30.9849 167.568 31.2231C167.575 31.4612 167.492 31.6932 167.335 31.8728L166.833 32.4693C166.846 32.4658 166.86 32.4655 166.873 32.4683C166.886 32.4712 166.899 32.4771 166.909 32.4857C166.921 32.4967 166.929 32.5108 166.933 32.5264C167.121 32.4533 167.327 32.444 167.521 32.4998C167.714 32.5556 167.884 32.6734 168.004 32.8352C168.126 33.0073 168.187 33.2158 168.177 33.4268C168.166 33.6379 168.085 33.8392 167.945 33.9981L163.712 39.0326C163.119 39.7367 162.33 40.2479 161.446 40.5006C160.561 40.7534 159.621 40.7361 158.746 40.4511C157.992 40.2054 157.363 39.6752 156.993 38.9733C156.623 38.2713 156.542 37.4529 156.766 36.6919L157.039 35.7622Z" fill="#E98862"/>
<g opacity="0.2">
<path d="M161.649 32.8124C161.666 32.8261 161.688 32.8328 161.71 32.831C161.731 32.8292 161.752 32.819 161.766 32.8027L164.449 29.7156C164.464 29.6986 164.471 29.6765 164.47 29.6541C164.468 29.6317 164.458 29.6109 164.441 29.5961C164.424 29.5814 164.402 29.5741 164.379 29.5757C164.357 29.5772 164.336 29.5877 164.321 29.6046L161.638 32.6915C161.631 32.6999 161.626 32.7096 161.622 32.7202C161.619 32.7307 161.617 32.7419 161.618 32.753C161.619 32.764 161.622 32.7749 161.627 32.7848C161.632 32.7948 161.638 32.8036 161.647 32.8109L161.649 32.8124Z" fill="#0C0C0C"/>
</g>
<g opacity="0.2">
<path d="M162.978 34.033C162.995 34.0469 163.017 34.0536 163.039 34.0518C163.061 34.05 163.081 34.0398 163.095 34.0234L166.089 30.5782C166.097 30.5698 166.102 30.5601 166.106 30.5495C166.109 30.539 166.111 30.5279 166.11 30.5168C166.109 30.5057 166.106 30.4949 166.101 30.4849C166.096 30.475 166.089 30.4661 166.081 30.4588C166.064 30.4449 166.042 30.438 166.02 30.4396C165.997 30.4411 165.977 30.451 165.961 30.4673L162.969 33.9124C162.962 33.9208 162.957 33.9306 162.953 33.9411C162.95 33.9517 162.948 33.9628 162.949 33.9739C162.95 33.985 162.953 33.9958 162.958 34.0058C162.963 34.0157 162.97 34.0246 162.978 34.0319L162.978 34.033Z" fill="#0C0C0C"/>
</g>
<g opacity="0.2">
<path d="M164.409 35.3636C164.426 35.3775 164.448 35.3842 164.47 35.3824C164.492 35.3806 164.512 35.3704 164.527 35.354L166.915 32.6061C166.928 32.5889 166.935 32.5673 166.932 32.5457C166.93 32.5241 166.92 32.5042 166.904 32.4899C166.887 32.4757 166.866 32.4683 166.844 32.4692C166.823 32.4701 166.802 32.4793 166.787 32.4948L164.399 35.243C164.391 35.2514 164.386 35.2612 164.382 35.2717C164.379 35.2823 164.377 35.2934 164.378 35.3045C164.379 35.3156 164.382 35.3264 164.387 35.3364C164.392 35.3463 164.399 35.3552 164.407 35.3625L164.409 35.3636Z" fill="#0C0C0C"/>
</g>
<path d="M167.014 38.1899L160.677 66.9393C160.662 67.0036 160.648 67.071 160.63 67.1354C159.207 68.6246 157.665 69.9959 156.02 71.2358C155.689 71.482 155.359 71.7249 155.019 71.9591C154.809 71.9825 154.598 71.9942 154.387 71.9942C153.257 71.9939 152.148 71.6965 151.17 71.1319C150.191 70.5672 149.379 69.7553 148.814 68.7774L136.737 47.8801L147.889 41.438L151.668 47.977L154.437 35.4171L167.014 38.1899Z" fill="#0CBC8B"/>
<path d="M147.511 51.297C147.473 51.7534 147.397 52.5674 147.291 53.6387C146.765 59.1152 145.532 71.3209 144.962 76.9613C137.751 79.2664 130.013 79.345 122.757 77.1867H122.754C117.396 75.5827 112.465 72.7982 108.324 69.0378C108.347 63.9945 108.274 58.3219 107.935 54.6749C106.919 43.7772 107.879 42.071 109.457 40.4934C109.585 40.3646 109.72 40.2387 109.855 40.1158C111.485 38.6347 113.531 37.6688 116.514 37.2645C118.486 36.9985 121.454 36.8053 121.454 36.8053C121.454 36.8053 121.706 41.8922 127.698 42.1732C135.856 42.5569 135.311 36.8053 135.352 36.8053C137.404 36.8053 141.97 36.9341 144.85 38.4005C144.853 38.4005 144.853 38.4005 144.856 38.4035C145.436 38.6857 145.964 39.0648 146.416 39.5245C149.715 43.0194 148.088 44.5139 147.511 51.297Z" fill="#0CBC8B"/>
<path d="M134.71 26.5923C133.533 27.1908 132.19 27.3801 130.893 27.1303C130.848 27.1218 130.802 27.1263 130.759 27.1432C130.717 27.1601 130.68 27.1887 130.653 27.2257C130.626 27.2628 130.611 27.3067 130.608 27.3523C130.605 27.3979 130.615 27.4433 130.638 27.4833C131.025 28.1644 131.941 29.3291 133.514 28.8546C134.53 28.5482 134.914 27.5032 135.056 26.8566C135.066 26.8119 135.063 26.7653 135.047 26.7223C135.031 26.6793 135.004 26.6417 134.967 26.6139C134.931 26.5862 134.887 26.5694 134.842 26.5655C134.796 26.5617 134.75 26.571 134.71 26.5923Z" fill="white"/>
<path d="M134.784 21.357C135.098 21.357 135.352 21.1024 135.352 20.7883C135.352 20.4742 135.098 20.2196 134.784 20.2196C134.469 20.2196 134.215 20.4742 134.215 20.7883C134.215 21.1024 134.469 21.357 134.784 21.357Z" fill="#0C0C0C"/>
<path d="M129.318 22.314C129.632 22.314 129.886 22.0593 129.886 21.7452C129.886 21.4311 129.632 21.1765 129.318 21.1765C129.004 21.1765 128.749 21.4311 128.749 21.7452C128.749 22.0593 129.004 22.314 129.318 22.314Z" fill="#0C0C0C"/>
<path d="M146.253 63.5746C146.25 63.5749 146.246 63.5749 146.242 63.5746C146.219 63.5714 146.198 63.5591 146.184 63.5406C146.17 63.522 146.164 63.4987 146.167 63.4756L147.173 53.3454C147.174 53.3339 147.178 53.3228 147.184 53.3127C147.189 53.3026 147.197 53.2938 147.206 53.2868C147.216 53.2798 147.226 53.2747 147.238 53.2719C147.249 53.2691 147.261 53.2687 147.272 53.2705C147.295 53.2737 147.316 53.2859 147.33 53.3045C147.344 53.323 147.35 53.3464 147.347 53.3695L146.341 63.4996C146.338 63.5207 146.328 63.5399 146.312 63.5536C146.295 63.5674 146.275 63.5749 146.253 63.5746Z" fill="#0C0C0C"/>
<path d="M140.168 63.0866L145.663 60.6323C145.784 60.5787 145.914 60.5507 146.046 60.5502C146.179 60.5497 146.309 60.5766 146.43 60.6293C146.552 60.682 146.66 60.7593 146.75 60.8564C146.84 60.9534 146.908 61.068 146.951 61.1928C147.023 61.426 147.007 61.6778 146.904 61.8992C146.801 62.1207 146.62 62.2961 146.395 62.3915L145.217 62.9183L149.682 62.9643C150.18 62.9608 150.79 63.274 150.757 63.8313C150.759 64.0466 150.687 64.2559 150.554 64.4253C150.421 64.5947 150.235 64.714 150.026 64.7638C150.027 64.7684 150.028 64.7731 150.028 64.7779C150.027 64.7815 150.027 64.7851 150.026 64.7887L150.791 64.7834C150.933 64.7825 151.073 64.8132 151.201 64.8732C151.33 64.9332 151.443 65.0211 151.533 65.1305C151.623 65.2398 151.688 65.3679 151.722 65.5053C151.757 65.6427 151.76 65.7861 151.732 65.925C151.683 66.1429 151.561 66.3373 151.385 66.4759C151.21 66.6144 150.993 66.6886 150.769 66.686L150.444 66.6883C150.439 66.6978 150.433 66.7065 150.426 66.7138C150.647 66.7634 150.842 66.8897 150.978 67.0702C151.114 67.2508 151.181 67.4738 151.168 67.6994C151.146 67.9457 151.032 68.1747 150.849 68.3408C150.665 68.5068 150.426 68.5976 150.179 68.595L149.369 68.6006C149.381 68.6086 149.39 68.6192 149.397 68.6316C149.404 68.6439 149.407 68.6577 149.407 68.6717C149.406 68.6883 149.401 68.7043 149.392 68.718C149.576 68.8167 149.723 68.9734 149.809 69.1638C149.896 69.3542 149.918 69.5678 149.871 69.7717C149.818 69.9846 149.694 70.1733 149.52 70.3073C149.347 70.4414 149.133 70.5128 148.913 70.5102L142.085 70.5588C141.13 70.5655 140.194 70.2869 139.398 69.7585C138.602 69.2301 137.982 68.4761 137.618 67.5931C137.303 66.8317 137.298 65.9776 137.603 65.2124C137.908 64.4472 138.5 63.8312 139.252 63.4952L140.168 63.0866Z" fill="#E98862"/>
<g opacity="0.2">
<path d="M145.605 64.7398C145.605 64.7631 145.615 64.7854 145.631 64.8019C145.648 64.8184 145.67 64.8276 145.693 64.8276L149.94 64.8659C149.963 64.8661 149.986 64.8571 150.002 64.8407C150.019 64.8244 150.028 64.8022 150.028 64.7789C150.029 64.7556 150.019 64.7332 150.003 64.7166C149.987 64.7 149.965 64.6905 149.941 64.6903L145.694 64.652C145.671 64.652 145.649 64.6612 145.632 64.6777C145.616 64.6942 145.606 64.7165 145.606 64.7398H145.605Z" fill="#0C0C0C"/>
</g>
<g opacity="0.2">
<path d="M145.537 66.6132C145.537 66.6365 145.546 66.6588 145.563 66.6753C145.579 66.6917 145.601 66.701 145.625 66.701L150.364 66.7437C150.387 66.7437 150.409 66.7345 150.426 66.718C150.442 66.7015 150.451 66.6792 150.451 66.6559C150.451 66.6329 150.441 66.6109 150.425 66.5946C150.409 66.5782 150.387 66.5688 150.364 66.5681L145.624 66.5254C145.601 66.5254 145.579 66.5346 145.562 66.5511C145.546 66.5676 145.537 66.5899 145.537 66.6132H145.537Z" fill="#0C0C0C"/>
</g>
<g opacity="0.2">
<path d="M145.451 68.6395C145.451 68.6628 145.46 68.6852 145.476 68.7016C145.493 68.7181 145.515 68.7273 145.538 68.7273L149.319 68.7616C149.342 68.7616 149.364 68.7523 149.381 68.7359C149.397 68.7194 149.407 68.6971 149.407 68.6738C149.407 68.6505 149.397 68.6282 149.381 68.6117C149.364 68.5952 149.342 68.586 149.319 68.586L145.538 68.552C145.515 68.552 145.493 68.5613 145.476 68.5777C145.46 68.5942 145.451 68.6165 145.451 68.6398V68.6395Z" fill="#0C0C0C"/>
</g>
<path d="M141.742 72.8723L122.757 77.1867H122.754C117.396 75.5828 112.465 72.7983 108.324 69.0379C107.879 68.6339 107.444 68.2202 107.019 67.7965C106.277 67.0564 105.568 66.2867 104.891 65.4874L107.548 44.1083C107.838 42.3849 108.801 40.8473 110.225 39.8337C111.648 38.8201 113.416 38.4136 115.14 38.7035C116.863 38.9935 118.401 39.9562 119.414 41.3798C120.428 42.8034 120.834 44.5714 120.544 46.2948L118.864 66.3684L140.033 61.5766L141.742 72.8723Z" fill="#0CBC8B"/>
<path d="M114.582 67.1569C114.571 67.1578 114.559 67.1563 114.548 67.1527C114.537 67.1491 114.527 67.1434 114.518 67.1358C114.51 67.1283 114.502 67.1191 114.497 67.1088C114.492 67.0985 114.489 67.0872 114.488 67.0757C114.487 67.0641 114.489 67.0526 114.492 67.0416C114.496 67.0306 114.502 67.0204 114.509 67.0116C114.517 67.0029 114.526 66.9957 114.536 66.9905C114.546 66.9853 114.558 66.9821 114.569 66.9813L118.813 66.0739C118.825 66.0721 118.837 66.0727 118.848 66.0754C118.859 66.0782 118.87 66.0831 118.879 66.09C118.888 66.0968 118.896 66.1055 118.902 66.1154C118.908 66.1253 118.912 66.1362 118.914 66.1476C118.915 66.1591 118.915 66.1707 118.912 66.1819C118.909 66.1931 118.904 66.2036 118.897 66.2129C118.89 66.2222 118.882 66.23 118.872 66.2359C118.862 66.2419 118.851 66.2458 118.84 66.2475L114.594 67.1549C114.59 67.1559 114.586 67.1565 114.582 67.1569Z" fill="#0C0C0C"/>
<path d="M141.742 72.8723C141.747 72.8948 141.743 72.9182 141.731 72.9378C141.719 72.9574 141.7 72.9717 141.677 72.9777L123.234 77.3243C123.117 77.2918 123.003 77.2599 122.889 77.2245L141.549 72.8313L139.886 61.7086L118.844 66.2481C118.83 66.2504 118.816 66.2494 118.803 66.2454C118.79 66.2414 118.778 66.2344 118.768 66.225C118.759 66.2145 118.752 66.2024 118.748 66.1893C118.744 66.1762 118.743 66.1625 118.744 66.1489L119.924 54.6779C119.926 54.6665 119.93 54.6556 119.936 54.6459C119.943 54.6362 119.951 54.6279 119.96 54.6213C119.97 54.6148 119.981 54.6102 119.992 54.6078C120.003 54.6054 120.015 54.6052 120.026 54.6073C120.049 54.6109 120.07 54.6234 120.083 54.6421C120.097 54.6608 120.103 54.6842 120.099 54.7071L118.937 66.0611L139.924 61.5125C139.936 61.5093 139.948 61.5087 139.959 61.5107C139.971 61.5127 139.982 61.5173 139.991 61.5242C140.002 61.5296 140.01 61.5371 140.017 61.5461C140.025 61.5551 140.03 61.5655 140.032 61.5766L141.742 72.8723Z" fill="#0C0C0C"/>
<path d="M37.5 257.045C58.2107 257.045 75 240.256 75 219.545C75 198.834 58.2107 182.045 37.5 182.045C16.7893 182.045 0 198.834 0 219.545C0 240.256 16.7893 257.045 37.5 257.045Z" fill="white"/>
<path opacity="0.09" d="M37.5 257.045C58.2107 257.045 75 240.256 75 219.545C75 198.834 58.2107 182.045 37.5 182.045C16.7893 182.045 0 198.834 0 219.545C0 240.256 16.7893 257.045 37.5 257.045Z" fill="#367CFF"/>
<path d="M27.1733 198.275C27.1733 198.275 27.5797 209.57 35.1181 210.089L36.395 195.195L27.1733 198.275Z" fill="#0A0A0A"/>
<path d="M28.6251 212.396C31.0915 212.396 33.0909 210.396 33.0909 207.93C33.0909 205.463 31.0915 203.464 28.6251 203.464C26.1586 203.464 24.1592 205.463 24.1592 207.93C24.1592 210.396 26.1586 212.396 28.6251 212.396Z" fill="#0A0A0A"/>
<path d="M46.0987 215.331C46.0588 215.325 45.6177 222.649 37.1098 222.01C31.2199 221.57 29.1201 215.321 28.9854 215.321C29.6584 215.209 30.3224 215.048 30.9719 214.839C31.8992 214.341 33.0468 213.823 33.3456 212.022C33.518 210.983 33.2259 205.673 33.3156 204.622L42.3565 206.64C42.2288 208.858 41.3459 214.001 44.4448 214.911C44.9601 215.061 45.5155 215.2 46.0987 215.331Z" fill="#E98862"/>
<path opacity="0.5" d="M42.4831 212.809C42.3414 212.352 42.2502 211.881 42.2111 211.404C42.1118 210.317 42.1316 209.223 42.2702 208.141C40.4326 207.893 38.7015 207.134 37.2734 205.951C37.1055 206.571 36.1823 209.281 36.438 209.87C36.9213 210.986 39.1919 212.809 42.4831 212.809Z" fill="#0C0C0C"/>
<path d="M41.0667 210.835C37.486 210.881 33.0096 209.074 32.4548 204.264L31.9542 199.923C31.3991 195.113 33.4756 190.921 38.0047 190.4C42.5335 189.877 46.3683 193.386 46.9234 198.196L47.1449 200.118C47.3579 201.964 47.4555 210.754 41.0667 210.835Z" fill="#E98862"/>
<path d="M45.8472 199.989C46.1573 199.989 46.4087 199.737 46.4087 199.427C46.4087 199.117 46.1573 198.866 45.8472 198.866C45.537 198.866 45.2856 199.117 45.2856 199.427C45.2856 199.737 45.537 199.989 45.8472 199.989Z" fill="#0C0C0C"/>
<path d="M40.1074 200.645C40.4175 200.645 40.6689 200.394 40.6689 200.083C40.6689 199.773 40.4175 199.522 40.1074 199.522C39.7973 199.522 39.5459 199.773 39.5459 200.083C39.5459 200.394 39.7973 200.645 40.1074 200.645Z" fill="#0C0C0C"/>
<path opacity="0.5" d="M42.9557 204.358H42.9646C43.1481 204.336 43.3302 204.303 43.5101 204.261C43.7789 204.195 44.1333 204.08 44.1055 203.84C44.0736 203.566 42.9822 200.695 42.8577 200.369C42.8523 200.355 42.8442 200.342 42.8338 200.331C42.8234 200.32 42.811 200.311 42.7972 200.305C42.7834 200.299 42.7685 200.295 42.7534 200.295C42.7384 200.295 42.7233 200.297 42.7092 200.302C42.6951 200.308 42.6822 200.316 42.6712 200.326C42.6603 200.337 42.6514 200.349 42.6453 200.363C42.6391 200.377 42.6357 200.392 42.6353 200.407C42.6349 200.422 42.6374 200.437 42.6428 200.451C43.1086 201.673 43.8559 203.682 43.8769 203.867C43.5896 204.028 43.2676 204.119 42.9381 204.13C42.9077 204.133 42.8795 204.147 42.8596 204.17C42.8398 204.193 42.8299 204.223 42.8323 204.254C42.8346 204.284 42.8489 204.312 42.872 204.332C42.8952 204.352 42.9253 204.362 42.9557 204.359V204.358Z" fill="#0C0C0C"/>
<path opacity="0.5" d="M42.1461 206.36C42.8816 206.318 43.5971 206.104 44.2347 205.735C44.2598 205.72 44.278 205.695 44.2854 205.666C44.2929 205.638 44.2891 205.607 44.2748 205.581C44.2605 205.556 44.2368 205.536 44.2086 205.527C44.1804 205.518 44.1499 205.521 44.1233 205.534C42.7462 206.296 41.4291 206.34 40.315 205.661C40.2925 205.647 40.2693 205.634 40.2454 205.622C40.2178 205.611 40.1871 205.611 40.1597 205.623C40.1324 205.634 40.1104 205.655 40.0983 205.682C40.0863 205.709 40.0851 205.74 40.0951 205.768C40.1051 205.796 40.1254 205.819 40.1519 205.832C40.1605 205.837 40.1752 205.846 40.1953 205.858C40.781 206.216 41.4603 206.391 42.1461 206.36Z" fill="#0C0C0C"/>
<path d="M28.2721 201.157L32.3304 200.712C35.452 199.704 36.749 194.52 36.749 194.52C36.749 194.52 39.5463 197.701 47.8358 196.248C47.8358 196.248 47.5147 185.561 34.9074 187.066C30.5179 187.59 27.2079 191.992 27.1737 197.748C27.1501 201.782 28.2721 201.157 28.2721 201.157Z" fill="#0A0A0A"/>
<path d="M32.9052 205.697C31.5287 205.857 30.2432 204.512 30.0845 203.136C29.9259 201.759 30.9538 200.872 32.3302 200.713L33.1458 201.554L34.0885 205.561L32.9052 205.697Z" fill="#E98862"/>
<path d="M43.861 198.026C44.267 197.802 44.7258 197.69 45.1896 197.703C45.4186 197.708 45.6456 197.748 45.8628 197.82C46.0787 197.891 46.2847 197.989 46.4761 198.112C46.4952 198.124 46.5089 198.143 46.5143 198.165C46.5198 198.187 46.5165 198.21 46.5052 198.23C46.4938 198.25 46.4754 198.264 46.4536 198.271C46.4318 198.277 46.4084 198.275 46.3883 198.264L46.3825 198.261C46.2012 198.154 46.0071 198.069 45.8047 198.01C45.6043 197.95 45.3959 197.921 45.1867 197.923C44.7705 197.926 44.3622 198.038 44.0034 198.249L43.9948 198.254C43.9799 198.264 43.9633 198.271 43.9458 198.274C43.9284 198.277 43.9105 198.277 43.8932 198.273C43.8759 198.269 43.8595 198.261 43.8451 198.251C43.8307 198.241 43.8185 198.228 43.8093 198.212C43.8001 198.197 43.794 198.18 43.7914 198.163C43.7889 198.145 43.7899 198.127 43.7944 198.11C43.7989 198.093 43.8068 198.077 43.8176 198.063C43.8285 198.049 43.842 198.037 43.8575 198.028L43.861 198.026Z" fill="#0C0C0C"/>
<path d="M40.2238 198.695C39.8269 198.569 39.4038 198.551 38.9977 198.643C38.7931 198.687 38.5965 198.763 38.4144 198.866C38.2305 198.969 38.0602 199.095 37.9075 199.24L37.9027 199.244C37.8854 199.257 37.8639 199.263 37.8424 199.261C37.8209 199.259 37.8008 199.25 37.786 199.234C37.7713 199.218 37.7628 199.197 37.7622 199.176C37.7617 199.154 37.7691 199.133 37.783 199.117C37.9422 198.955 38.1211 198.813 38.3155 198.696C38.5111 198.576 38.7235 198.487 38.9456 198.431C39.3948 198.315 39.8669 198.321 40.3128 198.449C40.3301 198.454 40.3462 198.461 40.3604 198.472C40.3745 198.483 40.3863 198.497 40.3951 198.512C40.4038 198.528 40.4094 198.545 40.4114 198.562C40.4134 198.58 40.4118 198.598 40.4068 198.615C40.4017 198.632 40.3932 198.648 40.3819 198.662C40.3705 198.675 40.3565 198.687 40.3407 198.695C40.3249 198.703 40.3076 198.708 40.2899 198.709C40.2722 198.71 40.2543 198.708 40.2375 198.702H40.234L40.2238 198.695Z" fill="#0C0C0C"/>
<path opacity="0.52" d="M42.2234 207.448C42.3565 207.442 42.4889 207.426 42.6192 207.398C42.6482 207.391 42.6733 207.373 42.6891 207.347C42.705 207.322 42.7104 207.291 42.7042 207.262C42.6981 207.233 42.6808 207.207 42.6561 207.191C42.6313 207.174 42.6011 207.167 42.5717 207.173C42.3682 207.232 42.1544 207.247 41.9446 207.218C41.7347 207.188 41.5336 207.114 41.3548 207C41.3312 206.981 41.3008 206.971 41.2705 206.974C41.2401 206.978 41.2123 206.992 41.1929 207.016C41.1736 207.04 41.1645 207.07 41.1676 207.1C41.1706 207.131 41.1856 207.159 41.2092 207.178C41.5059 207.383 41.8643 207.478 42.2234 207.448Z" fill="#0C0C0C"/>
<path opacity="0.1" d="M39.33 204.448C39.9204 204.427 40.3868 204.059 40.3716 203.626C40.3564 203.193 39.8655 202.859 39.2751 202.879C38.6847 202.9 38.2183 203.268 38.2335 203.701C38.2487 204.134 38.7396 204.468 39.33 204.448Z" fill="#0C0C0C"/>
<path opacity="0.1" d="M45.6487 203.252C45.6653 203.685 46.156 204.018 46.7465 203.999C46.8486 203.995 46.95 203.981 47.0491 203.956C47.119 203.448 47.1618 202.957 47.1851 202.501C47.0262 202.447 46.8585 202.423 46.6907 202.431C46.1014 202.45 45.6353 202.817 45.6487 203.252Z" fill="#0C0C0C"/>
<path d="M58.8051 223.044C58.7796 225.601 57.9017 228.65 57.5889 232.333C57.5059 233.317 55.3955 236.161 55.0891 239.324C54.7028 243.353 55.5619 249.635 55.6768 252.352C49.7451 255.634 43.0351 257.248 36.2596 257.024C29.4841 256.799 22.8959 254.743 17.1949 251.075C17.0416 244.097 16.8597 235.481 16.6266 233.416C15.8701 226.597 16.0744 222.284 17.1661 220.267C18.9506 216.973 22.1268 215.967 25.4499 215.514C27.4801 215.239 30.5287 215.044 30.5287 215.044C30.5287 215.044 30.7872 220.27 36.9482 220.561C45.3341 220.956 44.7754 215.044 44.8169 215.044C47.8591 215.044 53.6242 215.772 55.8332 217.279C58.1763 218.872 58.8339 220.762 58.8051 223.044Z" fill="#FFC239"/>
<path d="M29.8329 227.022L18.4559 251.849C14.0877 249.27 10.287 245.834 7.2832 241.746L16.7736 221.035L29.8329 227.022Z" fill="#FFC239"/>
<path d="M67.9954 241.371C65.7666 244.48 63.0765 247.232 60.0181 249.53C59.0114 250.29 57.9662 250.997 56.8865 251.649L45.2095 225.978L58.2847 220.028L67.9954 241.371Z" fill="#FFC239"/>
<path d="M225.75 202.499C246.46 202.499 263.249 185.71 263.249 165C263.249 144.289 246.46 127.5 225.75 127.5C205.039 127.5 188.25 144.289 188.25 165C188.25 185.71 205.039 202.499 225.75 202.499Z" fill="white"/>
<path opacity="0.09" d="M225.75 202.499C246.46 202.499 263.249 185.71 263.249 165C263.249 144.289 246.46 127.5 225.75 127.5C205.039 127.5 188.25 144.289 188.25 165C188.25 185.71 205.039 202.499 225.75 202.499Z" fill="#367CFF"/>
<path d="M233 142.544C233 142.544 235.375 139.971 235.191 135.069C235.049 131.273 232.07 134.288 232.07 134.288C232.07 134.288 231.941 131.556 230.047 132.173C228.152 132.789 227.57 135.789 227.57 135.789" fill="#0C0C0C"/>
<path d="M220.056 134.303C220.056 134.303 210.599 137.083 216.451 149.52L217.315 149.423L219.068 149.225" fill="#0C0C0C"/>
<path d="M233.458 162.422C233.415 162.416 232.937 170.35 223.72 169.657C217.339 169.179 215.064 162.409 214.917 162.409C215.605 162.263 216.456 162.041 216.794 161.965C217.53 161.794 218.197 161.403 218.706 160.844C219.214 160.285 219.541 159.584 219.642 158.834C219.828 157.71 219.512 151.956 219.609 150.818L229.404 153.004C229.267 155.408 228.309 160.979 231.666 161.965C232.225 162.128 232.827 162.279 233.458 162.422Z" fill="#E98862"/>
<path opacity="0.52" d="M229.541 159.688C229.388 159.194 229.289 158.684 229.247 158.168C229.139 156.991 229.16 155.805 229.311 154.633C227.32 154.364 225.444 153.542 223.897 152.261C223.715 152.932 222.715 155.868 222.992 156.506C223.516 157.713 225.975 159.688 229.541 159.688Z" fill="#0C0C0C"/>
<path d="M227.942 157.162C224.079 157.51 219.093 155.931 218.093 150.782L217.19 146.135C216.191 140.984 218.085 136.286 222.933 135.344C227.782 134.403 232.216 137.874 233.217 143.023L233.615 145.08C233.74 145.789 233.817 146.505 233.844 147.224C233.93 149.125 234.054 152.014 233.141 154.15C232.279 156.167 230.411 156.941 227.942 157.162Z" fill="#E98862"/>
<path opacity="0.5" d="M228.527 152.071C229.234 152.058 229.929 151.879 230.554 151.548C230.568 151.542 230.58 151.533 230.59 151.522C230.6 151.511 230.608 151.498 230.613 151.484C230.618 151.47 230.62 151.455 230.619 151.44C230.618 151.425 230.614 151.41 230.607 151.397C230.6 151.384 230.591 151.372 230.58 151.362C230.568 151.353 230.555 151.345 230.541 151.341C230.527 151.337 230.512 151.335 230.497 151.337C230.482 151.338 230.467 151.343 230.454 151.35C229.105 152.031 227.839 152.025 226.795 151.334C226.774 151.319 226.752 151.306 226.73 151.293C226.717 151.287 226.702 151.283 226.688 151.282C226.673 151.281 226.659 151.283 226.645 151.288C226.631 151.293 226.619 151.3 226.608 151.31C226.597 151.319 226.588 151.331 226.582 151.344C226.575 151.357 226.571 151.371 226.571 151.385C226.57 151.4 226.572 151.414 226.576 151.428C226.581 151.442 226.588 151.455 226.598 151.465C226.607 151.476 226.619 151.485 226.632 151.492C226.64 151.496 226.654 151.505 226.673 151.518C227.222 151.883 227.867 152.076 228.527 152.071Z" fill="#0C0C0C"/>
<path opacity="0.52" d="M228.561 153.119C228.689 153.119 228.816 153.107 228.942 153.085C228.957 153.083 228.97 153.078 228.983 153.07C228.995 153.062 229.006 153.052 229.014 153.04C229.022 153.028 229.028 153.015 229.032 153.001C229.035 152.987 229.035 152.972 229.033 152.958C229.03 152.944 229.025 152.93 229.017 152.918C229.01 152.905 229 152.895 228.988 152.886C228.976 152.878 228.963 152.872 228.948 152.869C228.934 152.865 228.92 152.865 228.905 152.868C228.708 152.917 228.502 152.924 228.302 152.888C228.102 152.851 227.911 152.773 227.744 152.657C227.722 152.639 227.693 152.629 227.664 152.631C227.636 152.634 227.609 152.647 227.59 152.668C227.57 152.69 227.561 152.718 227.562 152.747C227.564 152.776 227.576 152.803 227.598 152.823C227.875 153.03 228.215 153.135 228.561 153.119Z" fill="#0C0C0C"/>
<path d="M232.056 146.378C232.392 146.378 232.664 146.106 232.664 145.77C232.664 145.434 232.392 145.161 232.056 145.161C231.72 145.161 231.448 145.434 231.448 145.77C231.448 146.106 231.72 146.378 232.056 146.378Z" fill="#0C0C0C"/>
<path d="M226.141 147.069C226.477 147.069 226.749 146.797 226.749 146.461C226.749 146.125 226.477 145.853 226.141 145.853C225.805 145.853 225.533 146.125 225.533 146.461C225.533 146.797 225.805 147.069 226.141 147.069Z" fill="#0C0C0C"/>
<path d="M218.699 152.292C217.225 152.578 215.725 151.233 215.438 149.76C215.152 148.286 216.189 147.242 217.662 146.956L218.613 147.796L219.965 152.046L218.699 152.292Z" fill="#E98862"/>
<path d="M219.738 149.653C219.738 149.653 218.915 142.259 221.048 141.407C222.469 140.84 226.424 142.285 229.623 141.053C231.022 140.514 232.463 140.624 232.727 141.284C232.831 141.544 233.029 137.485 230.224 134.94C227.991 132.913 221.957 133.319 219.406 134.578C212.343 138.063 217.416 147.332 217.416 147.332L218.204 149.79L219.738 149.653Z" fill="#0C0C0C"/>
<g opacity="0.52">
<path d="M229.433 150.24H229.443C229.918 150.148 230.705 149.944 230.638 149.589C230.582 149.294 229.167 146.27 229.006 145.926C228.999 145.911 228.989 145.898 228.978 145.887C228.966 145.876 228.952 145.868 228.936 145.863C228.921 145.857 228.905 145.855 228.889 145.855C228.873 145.856 228.857 145.86 228.842 145.867C228.828 145.874 228.815 145.883 228.804 145.895C228.793 145.907 228.784 145.921 228.779 145.936C228.773 145.952 228.771 145.968 228.772 145.984C228.772 146 228.776 146.016 228.783 146.031C229.41 147.37 230.358 149.434 230.396 149.635C230.366 149.727 229.89 149.904 229.398 149.998C229.366 150.003 229.336 150.021 229.317 150.047C229.297 150.074 229.289 150.107 229.294 150.139C229.299 150.172 229.316 150.201 229.343 150.221C229.369 150.24 229.402 150.248 229.435 150.244L229.433 150.24Z" fill="#0C0C0C"/>
</g>
<path d="M229.77 142.83C230.245 142.602 230.773 142.507 231.298 142.554C231.556 142.576 231.809 142.636 232.049 142.733C232.285 142.827 232.509 142.95 232.715 143.1C232.753 143.127 232.78 143.167 232.789 143.213C232.798 143.258 232.789 143.305 232.764 143.345C232.739 143.384 232.7 143.412 232.655 143.422C232.61 143.433 232.562 143.426 232.522 143.402L232.508 143.398C232.322 143.278 232.121 143.183 231.91 143.114C231.703 143.045 231.487 143.008 231.269 143.003C230.839 142.991 230.414 143.093 230.036 143.298L230.02 143.307C229.99 143.325 229.956 143.336 229.921 143.341C229.886 143.345 229.85 143.343 229.816 143.333C229.782 143.324 229.75 143.308 229.722 143.286C229.694 143.265 229.67 143.238 229.653 143.207C229.635 143.176 229.624 143.142 229.619 143.107C229.615 143.072 229.617 143.036 229.627 143.002C229.636 142.968 229.652 142.936 229.674 142.908C229.695 142.88 229.722 142.857 229.753 142.839L229.77 142.83Z" fill="#0C0C0C"/>
<path d="M226.282 143.773C225.868 143.657 225.43 143.652 225.014 143.759C224.802 143.812 224.6 143.896 224.414 144.01C224.224 144.124 224.049 144.262 223.893 144.419L223.883 144.429C223.849 144.462 223.804 144.48 223.757 144.479C223.711 144.479 223.666 144.461 223.632 144.428C223.599 144.395 223.58 144.351 223.579 144.304C223.578 144.257 223.595 144.212 223.627 144.178C223.794 143.985 223.984 143.815 224.194 143.67C224.407 143.522 224.64 143.407 224.886 143.329C225.133 143.247 225.389 143.2 225.648 143.189C225.913 143.174 226.179 143.197 226.438 143.257C226.508 143.274 226.568 143.317 226.606 143.378C226.643 143.438 226.655 143.512 226.639 143.581C226.623 143.651 226.58 143.711 226.519 143.749C226.458 143.787 226.385 143.799 226.315 143.782L226.299 143.778L226.282 143.773Z" fill="#0C0C0C"/>
<path d="M228.147 137.932C229.199 137.505 229.543 135.905 228.915 134.357C228.288 132.809 226.927 131.899 225.875 132.325C224.823 132.752 224.479 134.352 225.107 135.9C225.734 137.448 227.095 138.358 228.147 137.932Z" fill="#0C0C0C"/>
<path d="M246.198 170.62C246.234 173.162 245.241 176.019 244.91 179.888C244.842 180.673 244.683 182.403 244.471 184.656C244.125 188.387 243.634 193.547 243.205 198.198C237.067 201.42 230.156 202.88 223.239 202.416C216.322 201.951 209.669 199.581 204.016 195.568C203.881 195.467 203.746 195.369 203.611 195.274C203.253 190.015 202.83 184.497 202.443 181.011C201.717 174.502 200.726 171.261 201.281 169.072C201.326 168.885 201.385 168.703 201.459 168.526C203.056 164.651 208.143 162.921 211.589 162.455C213.692 162.17 216.856 161.965 216.856 161.965C216.856 161.965 217.123 167.385 223.509 167.686C232.205 168.097 231.625 161.965 231.668 161.965C233.075 161.965 240.743 162.989 242.659 164.24C242.981 164.448 243.288 164.678 243.579 164.927C244.412 165.621 245.079 166.492 245.532 167.477C245.985 168.462 246.212 169.536 246.198 170.62Z" fill="#383838"/>
<path d="M214.183 174.551L204.016 195.568C203.881 195.467 203.746 195.369 203.611 195.274C199.67 192.384 196.328 188.756 193.77 184.592L201.281 169.072L201.579 168.456L214.183 174.551Z" fill="#383838"/>
<path d="M213.202 176.97L203.955 195.522C203.893 195.476 203.835 195.433 203.774 195.393L213.009 176.875C213.022 176.849 213.045 176.829 213.072 176.82C213.1 176.811 213.13 176.813 213.156 176.826C213.181 176.839 213.2 176.861 213.209 176.888C213.217 176.915 213.215 176.944 213.202 176.97Z" fill="white"/>
<path d="M260.086 180.097C258.243 184.274 255.655 188.081 252.449 191.331L244.471 184.656L234.338 176.176L243.579 164.927L243.607 164.893L260.086 180.097Z" fill="#383838"/>
<path d="M244.594 184.738C244.62 184.737 244.645 184.726 244.664 184.708C244.683 184.69 244.694 184.666 244.696 184.64L245.223 178.468C245.225 178.439 245.216 178.411 245.198 178.389C245.18 178.367 245.153 178.354 245.125 178.351C245.096 178.349 245.068 178.358 245.047 178.376C245.025 178.395 245.011 178.421 245.008 178.449L244.482 184.621C244.479 184.65 244.488 184.678 244.507 184.7C244.525 184.722 244.551 184.735 244.58 184.738L244.594 184.738Z" fill="white"/>
<path d="M355.696 284.59C376.404 284.59 393.192 267.802 393.192 247.094C393.192 226.385 376.404 209.597 355.696 209.597C334.987 209.597 318.199 226.385 318.199 247.094C318.199 267.802 334.987 284.59 355.696 284.59Z" fill="white"/>
<path opacity="0.09" d="M318.198 247.093C318.198 254.508 320.397 261.758 324.517 267.924C328.638 274.09 334.494 278.896 341.345 281.734C348.196 284.572 355.736 285.315 363.009 283.868C370.282 282.421 376.964 278.85 382.207 273.606C387.451 268.363 391.022 261.681 392.469 254.408C393.916 247.135 393.174 239.595 390.336 232.744C387.498 225.892 382.692 220.036 376.526 215.916C370.36 211.796 363.11 209.597 355.694 209.597C350.765 209.579 345.881 210.537 341.324 212.414C336.766 214.292 332.626 217.053 329.14 220.539C325.655 224.024 322.894 228.165 321.016 232.722C319.138 237.28 318.18 242.163 318.198 247.093Z" fill="#367CFF"/>
<path d="M372.709 226.402C372.111 233.344 372.666 235.698 375.549 239.676C377.98 243.03 364.145 240.179 358.024 239.089L363.425 223.302C363.425 223.302 372.92 223.964 372.709 226.402Z" fill="#0A0A0A"/>
<path d="M351.59 223.513C349.784 230.243 349.987 232.325 346.452 235.86C343.523 238.789 354.94 239.385 361.065 240.449L361.375 223.767C361.375 223.767 352.225 221.15 351.59 223.513Z" fill="#0A0A0A"/>
<path d="M352.199 243.088C352.239 243.083 352.688 250.526 361.335 249.877C367.321 249.429 369.455 243.078 369.592 243.078C368.908 242.964 368.233 242.801 367.573 242.588C366.631 242.082 365.464 241.555 365.161 239.724C364.985 238.669 365.282 233.272 365.191 232.203L356.003 234.254C356.131 236.509 357.031 241.735 353.881 242.66C353.356 242.814 352.792 242.955 352.199 243.088Z" fill="#E98862"/>
<path opacity="0.5" d="M355.874 240.525C356.018 240.061 356.11 239.583 356.15 239.099C356.251 237.994 356.231 236.882 356.09 235.782C357.958 235.53 359.717 234.759 361.169 233.557C361.339 234.187 362.278 236.94 362.018 237.539C361.526 238.671 359.219 240.525 355.874 240.525Z" fill="#0C0C0C"/>
<path d="M357.062 238.206C360.684 238.557 365.371 237.108 366.342 232.283L367.219 227.93C368.19 223.106 366.443 218.685 361.901 217.771C357.358 216.857 353.176 220.085 352.205 224.909L351.817 226.837C351.445 228.687 350.598 237.581 357.062 238.206Z" fill="#E98862"/>
<path d="M371.603 229.305L367.517 228.857C359.521 227.387 357.563 220.935 357.563 220.935C357.563 220.935 354.209 225.412 351.361 224.384C351.361 224.384 352.279 213.587 364.921 215.485C369.888 216.23 372.709 220.348 372.709 225.871C372.709 229.932 371.603 229.305 371.603 229.305Z" fill="#0A0A0A"/>
<path opacity="0.1" d="M360.536 231.22C360.588 230.783 360.147 230.37 359.551 230.299C358.955 230.228 358.429 230.525 358.377 230.962C358.325 231.4 358.766 231.812 359.362 231.883C359.958 231.954 360.484 231.657 360.536 231.22Z" fill="#0C0C0C"/>
<path opacity="0.1" d="M353.067 230.136C353.014 230.573 352.488 230.87 351.892 230.799C351.789 230.787 351.687 230.764 351.589 230.73C351.561 230.21 351.56 229.709 351.575 229.245C351.74 229.204 351.912 229.194 352.081 229.215C352.676 229.286 353.117 229.698 353.067 230.136Z" fill="#0C0C0C"/>
<path opacity="0.5" d="M355.7 231.486H355.691C355.507 231.448 355.325 231.399 355.147 231.341C354.88 231.251 354.531 231.105 354.579 230.864C354.635 230.589 355.985 227.774 356.138 227.455C356.145 227.44 356.154 227.427 356.165 227.417C356.177 227.406 356.19 227.398 356.205 227.392C356.219 227.387 356.235 227.385 356.251 227.385C356.266 227.386 356.282 227.39 356.296 227.397C356.31 227.404 356.322 227.413 356.333 227.425C356.343 227.437 356.351 227.45 356.356 227.465C356.361 227.48 356.363 227.496 356.362 227.511C356.36 227.527 356.356 227.542 356.349 227.556C355.773 228.754 354.846 230.725 354.808 230.91C355.086 231.098 355.404 231.217 355.737 231.257C355.766 231.263 355.792 231.28 355.809 231.305C355.826 231.33 355.833 231.36 355.828 231.39C355.823 231.419 355.807 231.446 355.784 231.464C355.76 231.483 355.73 231.491 355.7 231.488V231.486Z" fill="#0C0C0C"/>
<path d="M365.765 233.697C367.145 233.974 368.561 232.723 368.839 231.342C369.117 229.962 368.151 228.975 366.771 228.698L365.873 229.479L364.578 233.458L365.765 233.697Z" fill="#E98862"/>
<path d="M355.159 225.209C354.989 225.088 354.803 224.991 354.607 224.92C354.408 224.845 354.2 224.798 353.988 224.781C353.776 224.76 353.563 224.772 353.355 224.816C353.145 224.858 352.941 224.927 352.749 225.021L352.743 225.024C352.722 225.031 352.699 225.031 352.678 225.022C352.658 225.014 352.641 224.998 352.632 224.978C352.622 224.958 352.62 224.935 352.627 224.914C352.633 224.892 352.647 224.874 352.666 224.863C352.871 224.755 353.088 224.673 353.312 224.62C353.538 224.565 353.772 224.544 354.004 224.558C354.475 224.585 354.93 224.737 355.322 224.998C355.35 225.019 355.37 225.05 355.376 225.084C355.382 225.119 355.374 225.154 355.355 225.183C355.335 225.212 355.305 225.232 355.27 225.239C355.236 225.246 355.2 225.24 355.171 225.221L355.168 225.218L355.159 225.209Z" fill="#0C0C0C"/>
<path d="M358.879 225.723C359.341 225.631 359.82 225.665 360.265 225.821C360.485 225.897 360.692 226.005 360.88 226.143C361.067 226.278 361.237 226.437 361.384 226.614C361.4 226.632 361.408 226.655 361.407 226.679C361.406 226.702 361.396 226.725 361.378 226.741C361.361 226.757 361.338 226.765 361.314 226.764C361.29 226.763 361.268 226.752 361.252 226.735L361.247 226.73C361.105 226.57 360.943 226.428 360.765 226.308C360.589 226.188 360.397 226.096 360.193 226.033C359.79 225.907 359.36 225.889 358.947 225.983L358.937 225.985C358.902 225.994 358.866 225.988 358.835 225.97C358.805 225.951 358.783 225.921 358.774 225.887C358.766 225.852 358.771 225.816 358.79 225.785C358.808 225.755 358.838 225.733 358.873 225.724L358.879 225.723Z" fill="#0C0C0C"/>
<path d="M338.273 280.302C336.799 279.659 335.696 278.971 333.179 277.075C331.363 275.712 329.675 274.185 328.136 272.515L341.061 247.921L341.622 246.853L353.28 252.982L343.168 272.225L343.121 272.31L343.209 272.652" fill="#EA394A"/>
<path d="M381.256 260.518C380.916 264.165 380.843 269.837 380.866 274.88C375.993 279.3 370.042 282.359 363.611 283.75C357.18 285.141 350.497 284.814 344.232 282.802C343.466 275.197 342.325 264.022 341.683 257.141C341.032 250.013 339.117 247.659 344.343 244.245C347.223 242.779 351.789 242.65 353.841 242.65C353.144 249.406 367.383 250.238 367.737 242.65C378.387 243.646 383.317 243.893 381.256 260.518Z" fill="#EA394A"/>
<path d="M354.485 232.437C355.662 233.035 357.005 233.225 358.301 232.975C358.346 232.966 358.393 232.971 358.435 232.987C358.478 233.004 358.514 233.033 358.541 233.07C358.568 233.107 358.584 233.151 358.586 233.197C358.589 233.243 358.579 233.288 358.556 233.328C358.171 234.009 357.253 235.174 355.68 234.699C354.664 234.393 354.281 233.349 354.137 232.702C354.127 232.657 354.13 232.61 354.146 232.567C354.162 232.524 354.189 232.486 354.226 232.458C354.263 232.43 354.306 232.413 354.352 232.409C354.398 232.406 354.444 232.415 354.485 232.437Z" fill="white"/>
<path d="M354.411 227.202C354.725 227.202 354.98 226.948 354.98 226.634C354.98 226.32 354.725 226.065 354.411 226.065C354.097 226.065 353.843 226.32 353.843 226.634C353.843 226.948 354.097 227.202 354.411 227.202Z" fill="#0C0C0C"/>
<path d="M359.877 228.159C360.191 228.159 360.445 227.904 360.445 227.59C360.445 227.276 360.191 227.021 359.877 227.021C359.563 227.021 359.308 227.276 359.308 227.59C359.308 227.904 359.563 228.159 359.877 228.159Z" fill="#0C0C0C"/>
<path d="M342.942 269.416H342.953C342.976 269.412 342.997 269.4 343.011 269.381C343.025 269.363 343.031 269.339 343.028 269.316L342.022 259.187C342.021 259.176 342.017 259.165 342.012 259.155C342.006 259.145 341.998 259.136 341.989 259.129C341.98 259.122 341.969 259.117 341.958 259.114C341.947 259.111 341.935 259.111 341.923 259.112C341.912 259.114 341.901 259.118 341.891 259.124C341.881 259.129 341.872 259.137 341.865 259.146C341.858 259.156 341.853 259.166 341.85 259.177C341.848 259.188 341.847 259.2 341.849 259.211L342.854 269.341C342.857 269.362 342.868 269.381 342.884 269.395C342.9 269.409 342.921 269.416 342.942 269.416Z" fill="#0C0C0C"/>
<path d="M341.627 261.701H331.365V274.288H341.627V261.701Z" fill="white"/>
<path d="M337.425 267.995C337.425 267.163 337.672 266.351 338.134 265.66C338.596 264.969 339.252 264.43 340.02 264.112C340.788 263.794 341.633 263.711 342.448 263.874C343.264 264.036 344.012 264.436 344.6 265.024C345.188 265.612 345.588 266.361 345.75 267.176C345.912 267.992 345.829 268.837 345.511 269.604C345.192 270.372 344.654 271.029 343.962 271.49C343.271 271.952 342.459 272.199 341.627 272.199C340.513 272.197 339.445 271.754 338.657 270.966C337.869 270.178 337.426 269.109 337.425 267.995ZM339.146 267.995C339.146 268.485 339.292 268.965 339.564 269.373C339.837 269.781 340.224 270.099 340.678 270.287C341.131 270.475 341.63 270.524 342.112 270.428C342.593 270.333 343.035 270.096 343.382 269.749C343.729 269.402 343.965 268.96 344.061 268.479C344.157 267.997 344.108 267.499 343.92 267.045C343.732 266.592 343.414 266.204 343.006 265.931C342.598 265.659 342.118 265.513 341.627 265.513C340.97 265.514 340.339 265.776 339.874 266.241C339.408 266.706 339.147 267.337 339.146 267.995Z" fill="white"/>
<path d="M341.546 269.553C341.581 269.34 341.689 269.146 341.852 269.005C342.015 268.864 342.223 268.784 342.439 268.781C342.433 268.773 342.429 268.763 342.426 268.753L342.121 268.686C341.907 268.644 341.716 268.53 341.577 268.362C341.439 268.195 341.363 267.985 341.361 267.768C341.363 267.632 341.396 267.498 341.456 267.375C341.516 267.253 341.602 267.146 341.709 267.061C341.815 266.976 341.939 266.916 342.072 266.885C342.205 266.854 342.343 266.853 342.476 266.882L343.197 267.037C343.197 267.035 343.197 267.032 343.197 267.029C343.198 267.023 343.2 267.018 343.203 267.012C343.015 266.924 342.863 266.775 342.771 266.589C342.679 266.403 342.652 266.191 342.696 265.988C342.775 265.455 343.415 265.279 343.883 265.381L345.751 265.715L345.12 265.297C344.922 265.159 344.782 264.951 344.731 264.715C344.68 264.478 344.72 264.231 344.844 264.024C344.911 263.918 345 263.828 345.103 263.758C345.207 263.689 345.323 263.641 345.446 263.618C345.569 263.594 345.695 263.596 345.817 263.624C345.939 263.651 346.054 263.703 346.155 263.776L353.683 272.39L352.011 271.632C351.493 272.395 350.758 272.985 349.901 273.328C349.045 273.67 348.105 273.749 347.204 273.554L343.121 272.665C342.908 272.623 342.716 272.508 342.578 272.341C342.44 272.173 342.363 271.963 342.362 271.746C342.365 271.55 342.43 271.36 342.549 271.204C342.667 271.048 342.833 270.934 343.021 270.878C343.015 270.864 343.012 270.849 343.014 270.834C343.017 270.82 343.022 270.807 343.031 270.796C343.04 270.785 343.051 270.776 343.064 270.77L342.31 270.608C342.073 270.561 341.862 270.427 341.72 270.231C341.578 270.035 341.516 269.793 341.546 269.553Z" fill="#E98862"/>
<path opacity="0.2" d="M344.56 267.341C344.579 267.336 344.597 267.325 344.609 267.31C344.622 267.294 344.629 267.274 344.628 267.254C344.628 267.234 344.62 267.215 344.607 267.2C344.594 267.185 344.576 267.174 344.557 267.171L343.296 266.957C343.284 266.955 343.273 266.955 343.261 266.957C343.25 266.959 343.239 266.964 343.229 266.971C343.22 266.977 343.211 266.986 343.205 266.995C343.199 267.005 343.195 267.016 343.193 267.028C343.191 267.039 343.191 267.051 343.194 267.062C343.196 267.073 343.201 267.084 343.208 267.093C343.215 267.103 343.224 267.111 343.234 267.117C343.244 267.122 343.255 267.126 343.267 267.128L344.528 267.341C344.538 267.343 344.549 267.343 344.56 267.341Z" fill="#0C0C0C"/>
<path opacity="0.2" d="M344.256 269.124C344.275 269.12 344.293 269.109 344.305 269.093C344.318 269.078 344.325 269.058 344.324 269.038C344.324 269.018 344.317 268.999 344.304 268.983C344.291 268.968 344.273 268.958 344.253 268.954L342.526 268.648C342.514 268.645 342.503 268.645 342.491 268.647C342.48 268.649 342.469 268.654 342.459 268.66C342.449 268.667 342.441 268.675 342.434 268.685C342.428 268.695 342.423 268.706 342.421 268.717C342.419 268.729 342.42 268.74 342.422 268.752C342.425 268.763 342.43 268.774 342.437 268.784C342.444 268.793 342.453 268.801 342.463 268.807C342.473 268.813 342.484 268.817 342.496 268.818L344.223 269.125C344.234 269.127 344.245 269.126 344.256 269.124Z" fill="#0C0C0C"/>
<path opacity="0.2" d="M343.938 271.058C343.958 271.054 343.976 271.043 343.988 271.027C344.001 271.011 344.007 270.991 344.007 270.971C344.006 270.95 343.999 270.931 343.985 270.916C343.972 270.901 343.953 270.891 343.933 270.888L343.114 270.762C343.092 270.76 343.07 270.767 343.053 270.78C343.035 270.794 343.024 270.814 343.021 270.835C343.017 270.857 343.022 270.88 343.035 270.898C343.047 270.916 343.067 270.928 343.088 270.933L343.907 271.059C343.918 271.06 343.928 271.06 343.938 271.058Z" fill="#0C0C0C"/>
<path d="M386.484 268.488C381.866 275.129 375.229 280.104 367.56 282.674L367.557 282.671C365.853 282.337 349.602 275.921 347.453 275.499L349.805 264.526C355.844 265.728 366.86 270.361 372.933 271.568L368.648 252.138C368.493 251.28 368.51 250.4 368.697 249.548C368.885 248.696 369.24 247.89 369.741 247.177C370.243 246.463 370.881 245.856 371.619 245.391C372.356 244.926 373.179 244.612 374.039 244.467C374.899 244.323 375.78 244.35 376.629 244.548C377.478 244.747 378.28 245.111 378.987 245.622C379.694 246.132 380.293 246.777 380.749 247.521C381.205 248.264 381.509 249.091 381.643 249.953L386.484 268.488Z" fill="#EA394A"/>
<path d="M377.537 272.998C377.559 272.997 377.58 272.989 377.596 272.974C377.612 272.959 377.622 272.938 377.623 272.916C377.625 272.894 377.619 272.873 377.605 272.855C377.592 272.838 377.572 272.827 377.55 272.823L372.984 271.274C372.972 271.272 372.961 271.272 372.949 271.275C372.938 271.278 372.927 271.283 372.918 271.289C372.909 271.296 372.901 271.305 372.895 271.315C372.889 271.325 372.885 271.336 372.884 271.348C372.88 271.371 372.886 271.394 372.9 271.413C372.914 271.431 372.935 271.444 372.958 271.447L377.524 272.996C377.529 272.997 377.533 272.998 377.537 272.998Z" fill="#0C0C0C"/>
<path d="M373.054 271.348C373.056 271.375 373.048 271.403 373.03 271.424C373.02 271.434 373.008 271.441 372.995 271.445C372.982 271.449 372.968 271.45 372.954 271.447L349.951 264.658L347.646 275.458L367.454 282.705C367.393 282.726 367.328 282.746 367.267 282.767C367.223 282.781 367.179 282.796 367.132 282.808L347.517 275.606C347.495 275.6 347.476 275.585 347.464 275.566C347.452 275.546 347.448 275.523 347.453 275.5L349.805 264.527C349.808 264.516 349.813 264.506 349.82 264.497C349.827 264.488 349.836 264.48 349.846 264.475C349.855 264.468 349.866 264.463 349.878 264.461C349.89 264.459 349.902 264.46 349.913 264.463L372.861 271.261L370.263 260.55C370.26 260.527 370.266 260.504 370.279 260.485C370.293 260.467 370.313 260.454 370.336 260.451C370.347 260.448 370.359 260.448 370.37 260.451C370.382 260.453 370.393 260.458 370.402 260.464C370.412 260.471 370.42 260.479 370.426 260.489C370.432 260.498 370.437 260.509 370.439 260.521L373.054 271.348Z" fill="#0C0C0C"/>
<path d="M22.7319 267.164C22.7061 267.164 22.6806 267.159 22.6567 267.149C22.6333 267.139 22.612 267.125 22.5941 267.107C22.5762 267.089 22.562 267.067 22.5524 267.043C22.5428 267.02 22.5379 266.995 22.5381 266.969C22.5382 266.944 22.5434 266.919 22.5533 266.895L30.1454 248.849C30.1654 248.802 30.2034 248.765 30.251 248.745C30.2986 248.726 30.352 248.726 30.3994 248.746C30.4467 248.766 30.4842 248.804 30.5036 248.852C30.523 248.899 30.5226 248.953 30.5026 249L22.9105 267.045C22.8958 267.08 22.871 267.11 22.8392 267.132C22.8074 267.153 22.7701 267.164 22.7319 267.164Z" fill="#0C0C0C"/>
<path d="M67.4066 267.369H67.3981C67.3727 267.37 67.3473 267.366 67.3234 267.358C67.2995 267.349 67.2775 267.336 67.2587 267.319C67.2399 267.301 67.2247 267.281 67.2139 267.258C67.2031 267.235 67.197 267.21 67.1959 267.184L66.3496 248.728C66.349 248.677 66.3676 248.627 66.4019 248.59C66.4361 248.552 66.4834 248.529 66.5341 248.525C66.5595 248.524 66.5849 248.528 66.6089 248.536C66.6329 248.545 66.6549 248.558 66.6737 248.575C66.6925 248.592 66.7078 248.613 66.7186 248.636C66.7294 248.659 66.7356 248.684 66.7367 248.71L67.5829 267.167C67.5854 267.217 67.5685 267.266 67.5356 267.303C67.5027 267.341 67.4565 267.365 67.4066 267.369Z" fill="#0C0C0C"/>
</svg>
