<svg width="499" height="320" viewBox="0 0 499 320" fill="none" xmlns="http://www.w3.org/2000/svg">
<g clip-path="url(#clip0_553_441)">
<path d="M184.948 92.4738C101.504 157.133 143.546 184.948 92.4738 184.948C41.4019 184.948 0 143.546 0 92.4738C0 41.4019 41.4019 0 92.4738 0C143.546 0 268.391 27.8144 184.948 92.4738Z" fill="#F2F2F2"/>
<path d="M204.56 187.944C204.56 198.691 164.96 223.118 112.753 223.118C60.5459 223.118 15.2935 198.691 15.2935 187.944C15.2935 185.256 19.7261 188.594 24.5055 186.269C38.4197 179.489 71.5977 184.487 109.254 184.208C110.416 184.197 111.582 184.192 112.753 184.192C164.96 184.192 204.56 177.198 204.56 187.944Z" fill="#061173"/>
<path opacity="0.1" d="M204.56 187.944C204.56 198.691 164.96 223.118 112.753 223.118C60.5459 223.118 15.2935 198.691 15.2935 187.944C15.2935 185.256 19.7261 188.594 24.5055 186.269C38.4197 179.489 71.5977 184.487 109.254 184.208C110.416 184.197 111.582 184.192 112.753 184.192C164.96 184.192 204.56 177.198 204.56 187.944Z" fill="#061173"/>
<path d="M204.35 187.743C204.35 198.49 162.029 207.206 109.822 207.206C57.6148 207.206 15.2935 198.49 15.2935 187.743C15.2935 185.055 17.9349 182.499 22.7144 180.174C36.6286 173.393 68.6667 168.575 106.323 168.296C107.485 168.286 108.651 168.281 109.822 168.281C162.029 168.281 204.35 176.997 204.35 187.743Z" fill="#061173"/>
<path opacity="0.1" d="M107.448 168.695C103.432 175.241 97.9873 180.793 91.5206 184.935C85.0539 189.077 77.7334 191.701 70.1081 192.611C62.4828 193.521 54.7504 192.692 47.4909 190.188C40.2313 187.683 33.6329 183.568 28.1904 178.15C41.3804 172.753 71.7509 168.917 107.448 168.695Z" fill="black"/>
<path d="M65.1224 184.594C91.0233 184.594 112.02 162.098 112.02 134.347C112.02 106.596 91.0233 84.0991 65.1224 84.0991C39.2215 84.0991 18.2246 106.596 18.2246 134.347C18.2246 162.098 39.2215 184.594 65.1224 184.594Z" fill="#3F3D56"/>
<path d="M116.144 56.4924V68.2716L110.095 75.2754C110.095 75.2754 107.548 74.3203 107.548 67.9532L106.593 58.7209L116.144 56.4924Z" fill="#FFB9B9"/>
<path d="M110.095 68.2716C110.095 68.2716 119.964 61.5862 120.283 59.3577C120.601 57.1292 134.609 46.9418 132.38 53.3089C130.152 59.676 123.148 62.5412 123.148 62.5412C123.148 62.5412 117.736 77.1856 112.96 76.8673C108.185 76.5489 108.185 70.5001 110.095 68.2716Z" fill="#FFB9B9"/>
<path d="M104.365 139.902L103.41 145.632L108.504 144.359V139.902H104.365Z" fill="#FFB9B9"/>
<path d="M105.32 143.085C105.32 143.085 111.207 139.597 111.447 141.182C111.687 142.767 114.234 148.816 115.507 149.452C116.781 150.089 118.372 157.093 115.507 156.775C113.288 156.528 105.149 152.271 101.591 150.364C101.153 150.128 100.822 149.733 100.667 149.26C100.511 148.788 100.543 148.273 100.755 147.823C100.964 147.437 101.108 147.02 101.181 146.587C101.181 145.951 105.32 143.085 105.32 143.085Z" fill="#2F2E41"/>
<path d="M102.455 78.4589C102.455 78.4589 125.695 89.283 123.466 97.5603C121.238 105.838 112.96 140.857 112.96 140.857C112.96 140.857 103.728 143.085 103.091 140.857C102.455 138.628 109.14 103.927 108.503 102.654C107.867 101.381 96.0876 93.1033 96.0876 93.1033L71.8926 82.9159L82.08 73.3652L102.455 78.4589Z" fill="#2F2E41"/>
<path d="M119.964 141.812L122.83 149.134L117.736 151.363L114.552 145.632L119.964 141.812Z" fill="#FFB9B9"/>
<path d="M102.773 26.2486C102.773 26.2486 99.9076 30.0689 102.136 31.979C104.365 33.8892 102.773 40.893 102.773 40.893L99.9076 48.8519L88.4468 46.6234V33.5708L89.0835 27.2037C89.0835 27.2037 94.8139 21.7917 95.4506 17.653C96.0873 13.5144 102.773 26.2486 102.773 26.2486Z" fill="#FFB9B9"/>
<path opacity="0.1" d="M102.773 26.2486C102.773 26.2486 99.9076 30.0689 102.136 31.979C104.365 33.8892 102.773 40.893 102.773 40.893L99.9076 48.8519L88.4468 46.6234V33.5708L89.0835 27.2037C89.0835 27.2037 94.8139 21.7917 95.4506 17.653C96.0873 13.5144 102.773 26.2486 102.773 26.2486Z" fill="black"/>
<path d="M83.6715 75.9121C83.6715 75.9121 98.6342 92.4666 98.6342 93.1033C98.6342 93.74 106.593 106.793 106.593 106.793L122.193 141.493C122.193 141.493 116.144 149.771 113.597 149.134C111.05 148.497 92.9038 111.568 92.9038 111.568C92.9038 111.568 89.7202 103.291 81.1246 101.381C72.529 99.4704 65.8435 92.785 69.0271 85.1444C72.2106 77.5039 83.6715 75.9121 83.6715 75.9121Z" fill="#2F2E41"/>
<path d="M102.773 28.4771C108.399 28.4771 112.96 23.916 112.96 18.2897C112.96 12.6633 108.399 8.10229 102.773 8.10229C97.1465 8.10229 92.5854 12.6633 92.5854 18.2897C92.5854 23.916 97.1465 28.4771 102.773 28.4771Z" fill="#FFB9B9"/>
<path d="M102.455 34.8442C102.455 34.8442 101.181 42.1664 99.908 42.8031C98.6345 43.4398 97.6795 45.6683 94.8143 42.4848C91.9491 39.3012 89.4022 32.9341 89.4022 32.9341L79.5332 45.0316L78.5781 78.459C78.5781 78.459 89.7206 75.5938 93.2225 78.459C96.7244 81.3242 104.365 81.0058 104.365 81.0058L102.773 74.6387L104.047 63.8146L103.728 53.9456L103.41 46.9417L102.455 34.8442Z" fill="#F2F2F2"/>
<path d="M101.333 29.4856C101.333 29.4856 105.638 31.6606 105.956 32.934C106.275 34.2074 112.005 36.7543 112.005 36.7543C112.005 36.7543 114.234 38.9828 114.234 40.2562C114.234 41.5296 106.593 56.174 106.593 56.174C106.593 56.174 105.001 66.043 105.638 67.9531C106.275 69.8633 104.365 77.1855 104.365 77.1855L108.185 81.6424H104.683C104.683 81.6424 100.863 79.7323 100.863 78.7772C100.863 77.8221 101.499 71.1367 101.818 68.2715C102.136 65.4063 102.136 55.2189 101.5 51.717C100.863 48.2151 101.181 38.9828 101.181 36.7543C101.181 34.5258 101.333 29.4856 101.333 29.4856Z" fill="#3F3D56"/>
<path d="M91.4712 24.6516C91.4712 24.6516 90.0386 24.9752 85.9 26.2486C81.7614 27.5221 75.3942 29.4322 73.1657 31.979C71.6015 33.8625 70.216 35.8875 69.0271 38.0278L70.3005 60.9494C70.3005 60.9494 67.7537 65.7247 68.0721 68.2716C68.3904 70.8184 70.9373 71.1368 69.0271 76.5488C67.117 81.9609 63.2967 86.7362 66.7986 87.3729C70.3006 88.0096 79.5329 85.7812 83.6715 87.0546C87.8101 88.328 92.5854 82.2792 92.5854 82.2792C92.5854 82.2792 86.2183 82.9159 87.1734 80.3691C88.1285 77.8223 98.6342 49.1702 96.4057 42.8031C94.1772 36.436 91.4712 24.6516 91.4712 24.6516Z" fill="#3F3D56"/>
<path d="M112.642 38.6646L114.234 39.938C114.234 39.938 118.691 55.8558 117.417 57.4475C116.144 59.0393 105.957 62.5412 105.32 60.3127C104.683 58.0843 112.642 38.6646 112.642 38.6646Z" fill="#3F3D56"/>
<path d="M65.5253 49.8069C65.5253 49.8069 60.75 63.4962 60.75 67.3164C60.75 71.1367 61.3867 93.4216 61.3867 93.4216C61.3867 93.4216 61.7051 102.972 68.3905 99.152C75.076 95.3317 68.3905 92.7849 68.3905 92.7849C68.3905 92.7849 68.7089 67.6348 71.2557 64.1329C73.8026 60.631 74.7576 55.5373 74.7576 55.5373L65.5253 49.8069Z" fill="#FFB9B9"/>
<path d="M117.736 148.816C117.736 148.816 122.511 146.269 123.466 148.179C124.421 150.089 129.515 160.595 128.878 161.868C128.242 163.142 124.74 168.235 120.601 166.962C116.462 165.688 116.144 159.003 116.144 159.003L115.826 151.362L117.736 148.816Z" fill="#2F2E41"/>
<path d="M104.768 15.8289C104.066 16.1592 103.234 16.3566 102.793 16.9946C102.466 17.4674 102.433 18.0818 102.195 18.6048C101.935 19.1225 101.487 19.5216 100.943 19.7206C100.398 19.9197 99.7988 19.9037 99.2659 19.6759C99.1357 19.0418 98.767 18.4818 98.2359 18.1116C97.9676 17.9352 97.6498 17.8495 97.3292 17.8671C97.0086 17.8847 96.7021 18.0047 96.4547 18.2094C95.7986 18.835 96.0308 19.9259 95.7246 20.7792C95.4372 21.3795 95.0417 21.9218 94.558 22.379C93.8612 23.1829 93.3061 24.1258 92.4669 24.7799C91.6278 25.4339 90.3553 25.7174 89.5216 25.0564C88.8206 24.5006 88.6753 23.4751 88.8455 22.5969C89.0158 21.7186 89.4379 20.9098 89.676 20.0475C90.4497 17.2455 89.2163 14.2539 89.5979 11.3722C90.0868 7.67965 93.2253 4.76294 96.7284 3.49714C98.1861 2.90351 99.7821 2.73441 101.332 3.00939C102.934 3.36711 104.303 4.38705 105.837 4.97037C107.478 5.59417 109.262 5.70309 110.979 6.06777C112.696 6.43246 114.463 7.13756 115.46 8.58273C116.154 9.5907 116.393 10.8425 116.969 11.9229C117.632 13.1561 118.706 14.1182 120.005 14.6422L118.19 14.5388C118.494 15.349 118.99 16.0733 119.636 16.6496C118.785 16.8232 117.9 16.7062 117.123 16.3174C117.137 16.6905 117.227 17.0567 117.389 17.3935C117.55 17.7303 117.778 18.0305 118.06 18.2755C116.663 18.2334 115.19 18.1691 114.01 17.4209C113.432 17.0544 112.96 16.544 112.416 16.1286C111.257 15.2432 109.818 14.8229 108.416 14.4204C107.68 14.209 106.793 13.9152 106.127 14.3888C105.573 14.7832 105.485 15.4913 104.768 15.8289Z" fill="#2F2E41"/>
<path d="M73.8026 34.2075L69.0273 38.0278L62.6602 52.6721C62.6602 52.6721 71.5741 59.676 73.8026 58.7209C76.0311 57.7658 79.8514 40.893 79.8514 40.893L73.8026 34.2075Z" fill="#3F3D56"/>
<path d="M145.425 51.6816L125.332 62.7188C125.215 62.7962 125.083 62.8471 124.945 62.868C124.807 62.8888 124.665 62.8791 124.531 62.8396C124.397 62.8 124.273 62.7315 124.169 62.6389C124.064 62.5464 123.98 62.4319 123.925 62.3037L119.002 52.0148C118.909 51.7215 118.924 51.4045 119.045 51.1214C119.166 50.8383 119.384 50.608 119.661 50.4725L136.343 41.8735C136.549 41.7499 136.793 41.7064 137.028 41.7515C137.264 41.7965 137.474 41.9268 137.62 42.1175L145.953 49.9683C146.035 50.1145 146.087 50.2758 146.104 50.4426C146.122 50.6093 146.106 50.7779 146.056 50.9381C146.007 51.0983 145.926 51.2468 145.817 51.3746C145.709 51.5025 145.575 51.6069 145.425 51.6816Z" fill="#2F2E41"/>
<path d="M144.084 50.1618L125.247 60.9286L120.234 51.8941L136.394 43.1062L144.084 50.1618Z" fill="#FFC700"/>
<path d="M128.279 47.0497C128.377 46.9322 128.375 46.769 128.275 46.6853C128.175 46.6017 128.014 46.6292 127.916 46.7468C127.818 46.8644 127.82 47.0275 127.92 47.1112C128.02 47.1949 128.181 47.1673 128.279 47.0497Z" fill="#F2F2F2"/>
<path d="M135.213 56.2424C135.278 56.164 135.277 56.0552 135.21 55.9995C135.143 55.9437 135.036 55.962 134.97 56.0404C134.905 56.1188 134.906 56.2276 134.973 56.2834C135.04 56.3391 135.147 56.3208 135.213 56.2424Z" fill="#F2F2F2"/>
<path d="M40.6331 184.108C40.6331 191.401 36.2981 193.947 30.9498 193.947C30.8259 193.947 30.7021 193.945 30.5791 193.942C30.3313 193.937 30.0853 193.925 29.8429 193.909C25.016 193.567 21.2666 190.89 21.2666 184.108C21.2666 177.09 30.2342 168.234 30.9097 167.577L30.9106 167.576C30.9365 167.55 30.9498 167.538 30.9498 167.538C30.9498 167.538 40.6331 176.816 40.6331 184.108Z" fill="#FFC700"/>
<path d="M30.5966 192.831L34.1384 187.883L30.5877 193.375L30.5788 193.942C30.331 193.937 30.085 193.925 29.8426 193.909L30.2241 186.613L30.2214 186.556L30.2276 186.546L30.2642 185.856L26.7046 180.351L30.2749 185.339L30.2838 185.485L30.5716 179.973L27.5245 174.284L30.6091 179.006L30.9094 167.577L30.9103 167.538V167.576L30.8604 176.588L33.8942 173.015L30.8479 177.365L30.7677 182.3L33.6009 177.563L30.7561 183.027L30.7116 185.771L34.8228 179.177L30.6955 186.728L30.5966 192.831Z" fill="#3F3D56"/>
<path d="M175.883 169.033C175.883 176.326 171.548 178.873 166.199 178.873C166.075 178.873 165.952 178.871 165.829 178.868C165.581 178.863 165.335 178.851 165.092 178.834C160.266 178.493 156.516 175.816 156.516 169.033C156.516 162.016 165.484 153.16 166.159 152.503L166.16 152.502C166.186 152.476 166.199 152.464 166.199 152.464C166.199 152.464 175.883 161.741 175.883 169.033Z" fill="#FFC700"/>
<path d="M165.847 177.757L169.388 172.809L165.838 178.3L165.829 178.868C165.581 178.863 165.335 178.851 165.093 178.834L165.474 171.539L165.471 171.482L165.478 171.472L165.514 170.782L161.955 165.277L165.525 170.265L165.534 170.411L165.822 164.899L162.775 159.21L165.859 163.932L166.159 152.503L166.16 152.464V152.502L166.11 161.514L169.144 157.941L166.098 162.29L166.018 167.226L168.851 162.489L166.006 167.952L165.962 170.696L170.073 164.103L165.946 171.654L165.847 177.757Z" fill="#3F3D56"/>
<path d="M376.533 109.486H215.551V198.124H376.533V109.486Z" fill="#F2F2F2"/>
<path opacity="0.3" d="M242.529 154.783C249.856 154.783 255.797 148.843 255.797 141.515C255.797 134.188 249.856 128.248 242.529 128.248C235.201 128.248 229.261 134.188 229.261 141.515C229.261 148.843 235.201 154.783 242.529 154.783Z" fill="#FFC700"/>
<path opacity="0.3" d="M296.042 154.783C303.369 154.783 309.309 148.843 309.309 141.515C309.309 134.188 303.369 128.248 296.042 128.248C288.714 128.248 282.774 134.188 282.774 141.515C282.774 148.843 288.714 154.783 296.042 154.783Z" fill="#FFC700"/>
<path opacity="0.3" d="M349.555 154.783C356.882 154.783 362.822 148.843 362.822 141.515C362.822 134.188 356.882 128.248 349.555 128.248C342.227 128.248 336.287 134.188 336.287 141.515C336.287 148.843 342.227 154.783 349.555 154.783Z" fill="#FFC700"/>
<path opacity="0.3" d="M260.44 164.734H224.175V168.272H260.44V164.734Z" fill="#FFC700"/>
<path opacity="0.3" d="M314.395 164.734H278.13V168.272H314.395V164.734Z" fill="#FFC700"/>
<path d="M368.351 164.734H332.086V168.272H368.351V164.734Z" fill="#FFC700"/>
<path d="M498.927 282.851C498.927 294.201 457.102 320 401.962 320C346.822 320 299.027 294.201 299.027 282.851C299.027 280.012 303.709 283.537 308.756 281.081C323.452 273.92 358.495 279.199 398.267 278.904C399.494 278.893 400.726 278.888 401.962 278.888C457.102 278.888 498.927 271.5 498.927 282.851Z" fill="#061173"/>
<path opacity="0.1" d="M498.927 282.851C498.927 294.201 457.102 320 401.962 320C346.822 320 299.027 294.201 299.027 282.851C299.027 280.012 303.709 283.537 308.756 281.081C323.452 273.92 358.495 279.199 398.267 278.904C399.494 278.893 400.726 278.888 401.962 278.888C457.102 278.888 498.927 271.5 498.927 282.851Z" fill="#061173"/>
<path d="M498.706 282.638C498.706 293.989 454.006 303.194 398.866 303.194C343.726 303.194 299.027 293.989 299.027 282.638C299.027 279.799 301.817 277.099 306.865 274.644C321.561 267.482 355.399 262.393 395.171 262.099C396.398 262.088 397.63 262.082 398.866 262.082C454.006 262.082 498.706 271.288 498.706 282.638Z" fill="#061173"/>
<path d="M379.618 77.1741C379.618 77.1741 372.038 104.333 367.78 118.426C367.579 119.094 367.536 119.799 367.656 120.487C367.776 121.174 368.055 121.823 368.471 122.383C368.888 122.943 369.429 123.397 370.052 123.71C370.676 124.023 371.364 124.186 372.061 124.185H398.661C399.81 124.185 400.915 123.743 401.747 122.95C402.578 122.157 403.073 121.074 403.127 119.926L404.92 82.1191L379.618 77.1741Z" fill="#0F1011"/>
<path d="M420.384 137.586C420.384 137.586 412.647 133.493 414.355 112.435L398.373 109.486C398.373 109.486 400.185 128.363 392.108 134.364L420.384 137.586Z" fill="#E98862"/>
<path opacity="0.15" d="M395.381 130.418L408.644 120.252L398.22 120.152C397.922 123.721 396.959 127.203 395.381 130.418Z" fill="black"/>
<path d="M423.413 104.265C422.313 110.654 418.832 116.707 413.198 118.775C407.058 121.219 400.413 122.123 393.843 121.408C376.352 119.986 379.773 80.2192 388.073 72.4862C396.373 64.7532 420.743 69.6242 423.719 82.5412C425.258 89.2232 424.46 98.1862 423.413 104.265Z" fill="#E98862"/>
<path d="M398.388 99.366C399.189 99.366 399.837 98.7173 399.837 97.917C399.837 97.1168 399.189 96.468 398.388 96.468C397.588 96.468 396.939 97.1168 396.939 97.917C396.939 98.7173 397.588 99.366 398.388 99.366Z" fill="#0F1011"/>
<path d="M386.956 98.439C387.757 98.439 388.405 97.7903 388.405 96.99C388.405 96.1898 387.757 95.541 386.956 95.541C386.156 95.541 385.507 96.1898 385.507 96.99C385.507 97.7903 386.156 98.439 386.956 98.439Z" fill="#0F1011"/>
<path d="M388.281 93.1721L384.442 93.2241" stroke="#0F1011" stroke-width="1.362" stroke-miterlimit="10" stroke-linecap="round"/>
<path d="M401.513 94.6082L397.728 93.7012" stroke="#0F1011" stroke-width="1.362" stroke-miterlimit="10" stroke-linecap="round"/>
<path d="M397.728 109.329C397.728 109.329 392.38 109.898 388.628 108.592C388.628 108.592 388.661 112.114 392.894 112.458C397.127 112.802 397.728 109.329 397.728 109.329Z" fill="white"/>
<g opacity="0.15">
<path d="M391.963 105.96C392.083 105.96 392.199 105.917 392.289 105.839C392.38 105.761 392.44 105.653 392.458 105.534C392.476 105.416 392.45 105.295 392.387 105.194C392.323 105.092 392.225 105.017 392.11 104.982L389.162 104.082L391.22 99.4891C391.268 99.3693 391.267 99.2357 391.219 99.1163C391.17 98.9968 391.077 98.9007 390.96 98.848C390.842 98.7954 390.708 98.7902 390.587 98.8337C390.466 98.8771 390.366 98.9658 390.308 99.0811L387.787 104.707L391.817 105.941C391.865 105.955 391.914 105.961 391.963 105.96Z" fill="black"/>
</g>
<path d="M378.706 80.4301C378.706 80.4301 381.267 59.7171 414.456 64.8041C422.73 66.0721 434.456 72.5321 436.356 93.7041C437.224 103.416 440.572 112.573 443.126 118.369C443.428 119.05 443.556 119.795 443.497 120.537C443.438 121.279 443.195 121.995 442.789 122.62C442.384 123.244 441.829 123.757 441.175 124.113C440.52 124.468 439.788 124.655 439.043 124.655L415.713 124.663C415.127 124.664 414.546 124.55 414.004 124.326C413.462 124.103 412.969 123.775 412.554 123.361C412.139 122.948 411.809 122.456 411.584 121.915C411.359 121.374 411.242 120.793 411.241 120.207C411.241 120.141 411.241 120.076 411.241 120.007C411.409 116.036 411.541 109.313 411.315 99.0371C410.102 93.1721 413.333 89.0371 408.643 90.3851C391.229 95.3861 380.014 80.7651 378.706 80.4301Z" fill="#0F1011"/>
<path d="M405.711 104.156C405.645 104.96 405.739 105.769 405.987 106.537C406.234 107.305 406.63 108.017 407.153 108.631C407.675 109.246 408.314 109.752 409.032 110.12C409.75 110.488 410.533 110.711 411.337 110.776C412.141 110.841 412.95 110.747 413.718 110.5C414.486 110.252 415.197 109.856 415.812 109.333C416.427 108.811 416.932 108.173 417.3 107.455C417.668 106.737 417.891 105.953 417.957 105.149C418.112 103.555 417.629 101.965 416.612 100.727C415.596 99.4893 414.129 98.706 412.536 98.5492C412.468 98.5422 412.4 98.5372 412.336 98.5322C407.952 98.3862 405.986 100.774 405.711 104.156Z" fill="#E98862"/>
<path d="M357.106 292.205C355.206 291.887 333.771 288.226 333.771 288.226L337.306 267.526C337.306 267.526 358.683 271.177 360.577 271.494L357.106 292.205Z" fill="#E98862"/>
<path d="M321.543 312.062C321.452 312.62 321.477 313.19 321.617 313.737C321.756 314.284 322.007 314.797 322.354 315.243C322.7 315.688 323.135 316.058 323.631 316.328C324.127 316.599 324.673 316.764 325.236 316.813C326.015 316.882 326.799 316.727 327.493 316.366C328.188 316.005 328.764 315.452 329.156 314.774L341.268 292.02C341.5 291.579 341.635 291.093 341.663 290.595C341.69 290.097 341.61 289.598 341.427 289.134C339.681 285.435 339.17 281.274 339.967 277.262C340.716 274.159 342.322 271.329 344.602 269.095C344.822 268.902 344.984 268.65 345.067 268.369C345.15 268.088 345.151 267.789 345.071 267.507C344.991 267.225 344.832 266.971 344.613 266.776C344.394 266.581 344.124 266.452 343.835 266.404L332.047 264.43C331.699 264.372 331.343 264.383 330.999 264.462C330.656 264.542 330.331 264.688 330.045 264.894C329.758 265.099 329.515 265.359 329.329 265.658C329.143 265.958 329.017 266.291 328.961 266.639L321.543 312.062Z" fill="#C1D8ED"/>
<path d="M423.461 236.218C432.361 236.588 441.416 236.848 450.477 237.073L464.092 237.373L477.692 237.618L479.047 237.642C484.664 237.748 490.033 239.979 494.07 243.886C498.107 247.794 500.512 253.086 500.801 258.697C501.09 264.308 499.24 269.819 495.626 274.12C492.012 278.421 486.901 281.192 481.324 281.874L346.924 298.193L341.448 258.473L475.248 237.818L478.88 282.074L465.071 282.967L451.271 283.801C442.056 284.334 432.838 284.832 423.454 285.217L423.461 236.218Z" fill="#262626"/>
<path d="M457.366 283.508C438.811 280.808 436.966 280.308 436.353 280.148L441.81 259.87C441.748 259.853 441.668 259.831 441.572 259.81C443.092 260.142 452.522 261.583 460.387 262.726L457.366 283.508Z" fill="#E98862"/>
<path d="M480.543 301.558C480.738 302.088 480.822 302.653 480.788 303.217C480.755 303.78 480.606 304.331 480.351 304.835C480.095 305.338 479.738 305.784 479.303 306.143C478.867 306.503 478.362 306.769 477.819 306.924C477.067 307.14 476.268 307.137 475.518 306.914C474.767 306.691 474.096 306.258 473.583 305.666L457.373 285.624C457.062 285.235 456.839 284.784 456.718 284.301C456.597 283.817 456.582 283.314 456.673 282.824C457.685 278.861 457.397 274.678 455.853 270.89C454.529 267.986 452.415 265.513 449.753 263.751C449.5 263.604 449.293 263.387 449.158 263.127C449.023 262.867 448.965 262.573 448.99 262.281C449.016 261.989 449.124 261.71 449.302 261.477C449.479 261.243 449.72 261.066 449.995 260.964L461.195 256.788C461.526 256.665 461.877 256.608 462.23 256.621C462.582 256.634 462.928 256.717 463.249 256.864C463.569 257.011 463.857 257.22 464.097 257.479C464.336 257.738 464.522 258.041 464.644 258.372L480.543 301.558Z" fill="#C1D8ED"/>
<path d="M393.619 281.618C387.987 281.139 382.358 280.792 376.729 280.468C371.101 280.168 365.472 279.868 359.846 279.668L351.406 279.343L342.967 279.1C337.341 278.912 331.717 278.835 326.093 278.728L328.042 238.318C338.571 239.791 349.114 241.144 359.654 242.53C370.194 243.916 380.745 245.192 391.295 246.49L407.128 248.356L422.973 250.132C433.541 251.268 444.11 252.396 454.703 253.326L450.055 293.156C439.533 291.622 428.988 290.286 418.442 288.956L402.614 287.036L386.776 285.206C376.211 284.039 365.649 282.855 355.076 281.774C344.503 280.693 333.929 279.584 323.344 278.593C318.267 278.118 313.557 275.742 310.156 271.942C306.755 268.142 304.915 263.198 305.003 258.099C305.092 253.001 307.102 248.123 310.633 244.444C314.164 240.764 318.954 238.553 324.044 238.254L325.297 238.184C330.912 237.854 336.529 237.555 342.143 237.145L350.566 236.569L358.986 235.91C364.6 235.488 370.213 234.963 375.824 234.443C381.436 233.896 387.048 233.328 392.656 232.626L393.619 281.618Z" fill="#262626"/>
<path d="M443.896 230.083L446.856 279.789L361.366 278.784L367.819 234.779L443.896 230.083Z" fill="#262626"/>
<path d="M472.435 218.845L449.778 148.601C448.841 144.943 446.89 141.624 444.15 139.026C439.58 134.457 431.69 131.507 422.07 131.497C421.35 137.107 387.29 137.127 387.03 131.627C385.73 131.647 384.72 131.667 384.09 131.697C370.33 132.29 364.79 137.586 363.032 145.558L334.149 215.45C333.443 217.161 333.202 219.029 333.45 220.863C333.699 222.698 334.428 224.434 335.563 225.896C336.699 227.358 338.2 228.493 339.916 229.188C341.632 229.882 343.501 230.111 345.334 229.85L361.114 227.602C360.337 231.532 360.214 234.588 361.751 238.122C365.94 247.752 448.27 251.752 449.37 234.812C449.381 234.645 449.382 234.481 449.388 234.312L463.068 233.039C464.694 232.888 466.266 232.374 467.666 231.534C469.067 230.695 470.261 229.551 471.16 228.188C472.06 226.824 472.641 225.277 472.862 223.658C473.082 222.04 472.937 220.393 472.435 218.839V218.845ZM360.582 206.47L365.803 193.836C365.745 198.355 365.503 202.32 365.156 205.818L360.582 206.47ZM447.509 212.596L443.517 212.967C441.55 206.706 440.556 200.18 440.57 193.617C440.57 192.852 440.603 192.092 440.651 191.336L447.509 212.596Z" fill="#4E5D78"/>
<path d="M415.457 165.105L418.99 217.784C419.032 218.405 418.946 219.028 418.737 219.615C418.528 220.201 418.201 220.738 417.776 221.193C417.35 221.647 416.836 222.01 416.265 222.258C415.694 222.505 415.079 222.633 414.456 222.633H340.879C339.755 222.633 338.67 222.216 337.835 221.463C337 220.71 336.474 219.674 336.358 218.555L330.914 165.876C330.849 165.243 330.917 164.604 331.114 163.999C331.312 163.395 331.634 162.838 332.06 162.366C332.486 161.893 333.007 161.516 333.588 161.257C334.169 160.999 334.798 160.865 335.434 160.865H410.922C412.075 160.865 413.184 161.303 414.026 162.09C414.868 162.877 415.38 163.955 415.457 165.105Z" fill="#B0B7C3"/>
<path d="M347.025 222.633H424.331C426.083 222.633 427.503 221.213 427.503 219.461C427.503 217.709 426.083 216.289 424.331 216.289H347.025C345.273 216.289 343.853 217.709 343.853 219.461C343.853 221.213 345.273 222.633 347.025 222.633Z" fill="#B0B7C3"/>
<path d="M373.003 198.749C376.869 198.749 380.003 195.615 380.003 191.749C380.003 187.883 376.869 184.749 373.003 184.749C369.137 184.749 366.003 187.883 366.003 191.749C366.003 195.615 369.137 198.749 373.003 198.749Z" fill="white"/>
<path d="M383.089 229.323C387.579 232.093 394.529 233.403 400.589 233.883L400.93 222.843C398.079 222.763 393.699 222.463 389.41 222.633C387.471 221.052 386.355 220.582 384.366 218.593C382.247 216.475 376.689 215.203 375.64 218.593C374.591 221.983 379.149 226.886 383.089 229.323Z" fill="#E98862"/>
<path d="M387.03 131.627C387.29 137.127 390.28 145.216 399.51 145.827C411.81 146.637 421.35 137.107 422.07 131.497H422.04C409.93 131.497 394.09 131.517 387.03 131.627Z" fill="#E98862"/>
</g>
<defs>
<clipPath id="clip0_553_441">
<rect width="498.927" height="320" fill="white"/>
</clipPath>
</defs>
</svg>
